<?xml version="1.0" standalone="no"?>
<!DOCTYPE svg PUBLIC "-//W3C//DTD SVG 20010904//EN"
 "http://www.w3.org/TR/2001/REC-SVG-20010904/DTD/svg10.dtd">
<svg version="1.0" xmlns="http://www.w3.org/2000/svg"
 width="1024.000000pt" height="1024.000000pt" viewBox="0 0 1024.000000 1024.000000"
 preserveAspectRatio="xMidYMid meet">

<g transform="translate(0.000000,1024.000000) scale(0.100000,-0.100000)"
fill="#000000" stroke="none">
<path d="M6855 9351 c-37 -23 -126 -116 -186 -196 -25 -33 -148 -214 -273
-402 -125 -189 -231 -345 -236 -348 -8 -5 -192 416 -262 604 -22 58 -42 130
-45 160 -7 71 -18 91 -49 91 -28 0 -37 -18 -48 -92 -8 -53 -44 -161 -104 -313
-50 -127 -143 -402 -177 -525 -39 -139 -35 -220 9 -220 34 0 46 21 57 97 5 37
20 109 34 158 47 173 201 605 224 628 10 10 89 -163 164 -358 68 -175 94 -255
111 -335 7 -36 20 -68 28 -74 28 -17 65 9 94 66 25 50 359 561 481 737 63 91
139 181 154 181 20 0 6 -57 -60 -257 -76 -227 -95 -297 -140 -508 -41 -196
-53 -292 -41 -334 11 -40 24 -51 63 -51 27 0 27 0 27 68 0 114 85 502 166 759
75 240 90 310 85 420 -1 29 -22 63 -39 63 -4 0 -20 -8 -37 -19z"/>
<path d="M4922 9333 c-123 -63 -246 -198 -292 -319 -11 -30 -23 -87 -27 -126
l-6 -72 -84 -89 c-108 -115 -154 -205 -161 -311 -6 -95 2 -138 35 -176 40 -48
78 -63 180 -68 103 -5 219 16 353 66 l75 28 51 -23 c64 -29 208 -49 247 -34
17 7 27 18 27 31 0 11 -3 20 -7 20 -49 2 -159 23 -192 36 -45 18 -51 29 -22
39 11 3 49 37 85 75 97 104 117 190 66 290 -44 86 -145 150 -235 150 -61 0
-163 -46 -243 -109 l-52 -42 -10 28 c-6 15 -12 33 -15 40 -2 6 31 40 73 76
104 88 242 232 288 302 32 47 39 68 42 119 3 49 0 66 -13 79 -26 27 -101 22
-163 -10z m77 -81 c19 -35 -27 -101 -172 -247 -76 -77 -141 -135 -144 -128 -9
23 29 124 69 183 22 34 63 86 92 117 79 87 134 114 155 75z m69 -497 c20 -9
48 -26 61 -38 30 -28 60 -93 61 -133 0 -42 -48 -114 -106 -156 -96 -69 -86
-70 -175 18 -44 44 -92 103 -109 135 l-31 58 52 41 c107 85 174 105 247 75z
m-423 -80 l17 -44 -31 -40 c-36 -46 -49 -98 -31 -130 14 -28 53 -25 59 4 2 11
15 39 28 63 l25 43 45 -68 c24 -37 69 -93 100 -124 l55 -57 -44 -16 c-84 -31
-163 -46 -244 -46 -107 0 -138 7 -170 39 -25 25 -26 30 -22 106 3 65 10 91 34
135 28 52 138 180 154 180 5 0 16 -20 25 -45z"/>
<path d="M4198 9253 c-10 -12 -17 -46 -20 -93 -6 -95 -50 -227 -128 -386 -91
-186 -233 -349 -357 -411 -50 -24 -70 -28 -144 -28 -201 1 -265 107 -209 345
29 122 54 189 121 329 78 162 81 233 10 196 -34 -17 -75 -96 -155 -296 -64
-161 -88 -256 -89 -364 -2 -83 0 -94 28 -144 82 -148 279 -194 470 -110 189
83 377 339 509 691 67 181 70 288 8 288 -16 0 -36 -8 -44 -17z"/>
<path d="M8545 8780 c4 -22 -2 -29 -47 -57 -50 -30 -54 -31 -72 -15 -18 16
-18 16 -7 -7 11 -20 10 -26 -12 -50 -13 -14 -33 -39 -43 -56 -11 -18 1 -9 30
23 l49 53 22 -33 22 -32 -34 -44 c-18 -24 -33 -48 -33 -54 0 -6 13 7 29 30 40
54 48 57 65 25 18 -32 21 -26 6 12 -9 25 -7 27 43 50 l52 25 18 -23 18 -22
-10 22 c-6 12 -7 24 -3 27 9 5 116 24 177 30 22 2 -3 3 -55 1 -52 -2 -104 -7
-116 -10 -17 -5 -25 1 -43 30 -11 20 -21 38 -21 40 0 7 72 27 144 41 l71 14
-71 -5 c-39 -3 -89 -11 -112 -19 -38 -14 -41 -14 -56 7 l-16 22 5 -25z m39
-76 c9 -20 16 -37 14 -39 -2 -1 -24 -13 -50 -27 l-47 -26 -20 31 c-15 24 -17
35 -9 45 11 12 76 51 89 52 3 0 13 -16 23 -36z"/>
<path d="M7085 8748 c-54 -20 -102 -56 -126 -95 -19 -31 -24 -53 -25 -115 l-2
-77 -43 -34 c-81 -61 -55 -112 32 -65 l48 25 31 -38 c59 -74 169 -106 324 -94
118 9 185 27 283 76 90 45 117 68 111 96 -6 28 -60 20 -114 -16 -68 -44 -141
-69 -244 -82 -128 -15 -217 0 -266 47 -20 18 -34 39 -32 45 2 7 33 21 68 33
129 42 175 86 174 165 -1 106 -107 169 -219 129z m109 -87 c11 -12 16 -31 14
-53 -3 -29 -10 -36 -58 -60 -30 -15 -70 -31 -87 -34 l-33 -6 0 47 c0 42 5 52
39 86 45 45 95 53 125 20z"/>
<path d="M8603 8570 c3 -8 29 -71 57 -140 l52 -125 7 -145 c6 -122 11 -152 30
-188 12 -24 21 -45 19 -46 -48 -35 -78 -45 -103 -36 -119 45 -232 -59 -196
-181 12 -39 35 -60 68 -58 16 0 16 1 -2 9 -33 13 -47 37 -47 80 1 82 65 138
144 125 35 -6 39 -10 33 -29 -16 -47 -16 -91 -1 -111 14 -19 15 -18 9 16 -3
23 1 47 11 68 l17 31 42 -30 c100 -71 101 -72 102 -148 1 -54 6 -75 23 -100
41 -56 122 -62 191 -13 28 20 29 20 46 1 10 -11 26 -22 35 -25 27 -9 30 -27
15 -92 -8 -32 -14 -70 -15 -85 0 -24 4 -28 28 -28 16 0 37 9 47 20 22 25 32
116 17 159 -6 17 -7 31 -2 31 4 0 31 -18 60 -41 50 -39 94 -100 175 -241 22
-38 42 -68 46 -68 13 0 101 103 141 164 86 133 76 251 -28 312 -41 24 -61 29
-142 32 -91 4 -95 4 -165 -32 -40 -19 -83 -45 -97 -56 -14 -11 13 -1 59 23 80
40 87 42 175 42 79 0 97 -3 135 -25 64 -36 86 -71 85 -133 0 -64 -43 -150
-113 -228 l-47 -53 -63 96 c-67 104 -135 174 -199 207 -23 12 -43 21 -44 21
-2 0 -2 -31 0 -69 3 -50 -1 -77 -12 -98 l-16 -28 1 50 c3 107 1 115 -41 157
-32 32 -39 45 -34 65 l7 25 15 -31 c23 -49 22 -32 -3 44 -63 187 -31 372 84
484 27 27 96 77 152 112 57 35 128 84 159 110 l55 46 -3 -68 c-5 -82 9 -170
44 -276 43 -130 25 -256 -50 -343 l-21 -25 28 25 c49 43 80 116 85 200 3 61
-1 92 -24 170 -30 102 -37 221 -21 365 l7 70 -22 -30 c-56 -75 -111 -122 -244
-210 -195 -130 -249 -196 -275 -338 -12 -62 -3 -188 16 -242 4 -11 -2 -6 -12
10 -25 39 -45 55 -79 64 -21 5 -31 17 -42 49 -17 51 -60 89 -110 97 -20 4 -43
8 -50 11 -28 9 -45 79 -52 224 -5 99 -13 157 -25 184 -9 21 -15 40 -13 42 2 2
22 -3 45 -11 23 -8 88 -22 145 -31 140 -22 187 -48 232 -129 10 -16 15 -22 12
-12 -3 10 -6 23 -6 27 0 18 -64 82 -100 100 -21 11 -86 29 -146 41 -141 27
-186 52 -248 137 -27 37 -46 60 -43 52z m251 -716 c33 -26 67 -49 74 -51 16
-7 15 -23 -2 -23 -7 0 -25 -11 -38 -25 l-26 -25 -66 66 c-36 36 -66 68 -66 70
0 3 51 33 59 34 2 0 31 -21 65 -46z m55 15 c17 -17 31 -35 31 -40 0 -10 -23 5
-80 50 -24 20 -25 21 -3 21 12 0 35 -14 52 -31z m68 -124 c-2 26 1 30 22 27
27 -3 53 -23 83 -64 16 -23 17 -33 9 -66 -15 -55 -50 -84 -108 -89 -41 -4 -52
-1 -74 19 -38 35 -46 98 -18 148 12 21 31 42 43 48 18 8 23 5 33 -22 l12 -31
-2 30z"/>
<path d="M8932 7638 c-31 -31 10 -75 43 -48 19 16 19 25 -1 44 -19 19 -26 20
-42 4z"/>
<path d="M9810 8299 c0 -2 7 -25 15 -51 14 -48 14 -48 -13 -63 l-27 -16 26 5
c19 4 29 1 33 -10 11 -29 6 -63 -11 -73 -17 -10 -17 -10 0 -11 21 0 21 -13 3
-73 -8 -26 -12 -47 -10 -47 10 0 34 71 34 100 0 27 6 34 43 50 l42 19 3 -25
c2 -14 -3 -45 -12 -70 -8 -24 -11 -42 -6 -39 10 6 37 87 42 124 2 17 15 28 48
42 47 19 32 27 -16 9 -31 -12 -34 -10 -38 23 -1 13 -13 40 -25 58 -21 31 -22
26 -5 -15 4 -11 -6 -17 -38 -23 l-43 -9 -17 44 c-15 39 -28 63 -28 51z m140
-124 c0 -19 -10 -30 -40 -45 -21 -11 -42 -20 -45 -20 -3 0 -5 18 -5 39 0 37 2
40 38 48 45 12 52 9 52 -22z"/>
<path d="M8877 8212 c-36 -40 -9 -102 45 -102 49 0 78 69 42 104 -21 22 -67
20 -87 -2z"/>
<path d="M9403 8198 c-47 -23 -53 -103 -10 -133 74 -52 166 45 110 114 -21 25
-70 35 -100 19z"/>
<path d="M9299 7897 c-44 -30 -95 -106 -115 -172 -19 -69 -33 -155 -24 -155 4
0 18 28 30 63 27 74 88 209 98 217 4 3 20 20 36 38 35 37 23 42 -25 9z"/>
<path d="M3145 7831 c-66 -16 -116 -55 -201 -156 -76 -90 -95 -119 -155 -221
-128 -223 -167 -357 -140 -485 10 -45 66 -207 76 -217 1 -2 5 8 7 22 3 14 2
23 -2 21 -11 -7 -57 121 -69 192 -17 91 6 185 75 312 20 36 49 91 64 121 58
114 204 292 287 349 18 12 55 24 82 28 47 5 51 4 88 -34 47 -48 71 -96 113
-228 17 -55 42 -129 55 -165 28 -76 32 -100 22 -117 -4 -7 -1 -33 8 -58 8 -25
15 -54 15 -63 0 -24 65 -177 90 -212 52 -73 72 -88 106 -83 32 5 33 4 50 -52
18 -56 18 -57 -1 -71 -10 -8 -24 -14 -31 -14 -8 0 -11 -26 -11 -87 0 -49 0
-106 -1 -128 0 -22 -1 -53 0 -68 1 -34 -17 -54 -56 -61 -16 -3 -36 -12 -46
-21 -33 -30 -143 -66 -205 -67 -78 -1 -170 9 -192 21 -10 6 -42 21 -71 35
-103 50 -134 84 -116 130 9 22 29 20 114 -14 97 -38 138 -39 173 -2 32 33 34
64 11 143 -19 64 -95 210 -130 248 -13 14 -24 29 -24 32 0 4 -17 17 -37 29
-21 13 -32 24 -26 28 6 4 -18 8 -52 10 -56 2 -65 0 -75 -19 -14 -25 -7 -35 10
-14 7 8 22 15 34 14 21 0 21 0 -1 -9 -34 -14 -31 -60 7 -93 16 -15 33 -27 38
-27 14 0 42 -58 42 -88 0 -16 7 -35 15 -42 23 -19 19 -85 -7 -110 -23 -22 -31
-23 -66 -13 l-24 6 29 23 28 24 -34 -7 c-41 -7 -52 7 -39 54 5 19 7 37 5 39
-3 3 -27 14 -55 24 l-49 19 -11 -24 c-21 -45 -106 -43 -127 3 -5 12 -14 22
-19 22 -6 0 -21 12 -34 28 l-23 27 5 -34 c6 -33 4 -32 -70 47 -42 45 -80 80
-85 76 -5 -3 -26 11 -47 30 -20 20 -38 32 -40 27 -6 -19 55 -90 103 -120 28
-17 71 -50 98 -73 l48 -43 -21 -32 c-16 -26 -26 -33 -52 -33 -41 0 -94 -31
-103 -60 -5 -17 -13 -21 -33 -17 -37 7 -52 -2 -52 -30 0 -23 -3 -25 -32 -19
-78 16 -152 18 -206 7 -163 -35 -184 -42 -227 -73 -48 -36 -60 -57 -50 -88 21
-66 212 -61 343 7 17 10 32 21 32 25 0 17 35 38 64 38 42 0 60 -21 61 -70 0
-21 3 -36 8 -33 4 2 7 -5 7 -17 0 -15 -12 -27 -42 -40 -64 -29 -96 -53 -170
-126 -41 -41 -77 -89 -93 -123 -25 -52 -74 -124 -124 -180 l-21 -24 -30 28
c-17 16 -39 52 -49 79 l-20 51 0 -56 c-1 -40 6 -68 23 -100 l23 -44 -24 -19
c-30 -22 -104 -16 -130 10 -10 10 -27 14 -45 12 -36 -6 -55 25 -98 157 -30 94
-30 98 -16 148 24 84 40 152 37 156 -1 2 9 11 24 21 14 9 37 33 50 52 13 20
35 38 49 42 23 6 56 54 56 82 0 20 -45 40 -135 59 -44 10 -91 22 -105 28 -14
5 -32 11 -40 12 -131 21 -200 42 -335 106 -27 13 -58 23 -69 24 -32 0 -75 79
-82 151 -6 52 -3 67 20 117 43 90 114 127 246 127 88 0 196 -25 406 -94 236
-76 353 -131 531 -249 79 -52 91 -63 80 -76 -11 -14 -10 -14 5 -3 15 12 21 11
42 -6 14 -11 23 -21 21 -24 -3 -3 1 -5 7 -5 7 0 21 -4 31 -8 26 -11 21 10 -6
24 -18 10 -24 22 -25 52 -3 66 -40 199 -56 199 -2 0 2 -24 9 -52 7 -29 15 -79
17 -110 l4 -58 -25 17 c-26 16 -138 99 -155 114 -14 13 22 48 77 76 27 13 47
26 45 29 -10 10 -113 -30 -136 -53 -22 -22 -27 -24 -49 -12 l-25 13 22 18 c26
21 91 40 137 40 18 0 33 4 33 9 0 5 -29 9 -64 9 -49 0 -74 -6 -111 -26 l-49
-25 -107 51 c-111 52 -339 132 -489 170 -94 24 -220 29 -286 11 -91 -24 -162
-96 -185 -185 -47 -186 131 -380 417 -457 l79 -21 1 -122 c0 -109 4 -136 42
-281 23 -88 56 -187 72 -221 33 -68 97 -136 144 -155 17 -7 33 -14 35 -15 2
-2 -10 -21 -25 -43 -31 -43 -44 -45 -91 -15 -33 21 -30 -3 4 -38 27 -28 27
-28 9 -64 -21 -45 -14 -58 9 -15 8 17 18 31 20 31 5 0 5 0 -58 -160 -25 -63
-50 -133 -56 -155 -9 -37 -9 -39 5 -20 15 19 16 18 9 -15 -4 -19 -16 -61 -26
-92 -20 -62 -25 -144 -9 -168 7 -11 10 4 11 50 1 60 2 57 16 -50 7 -63 15
-142 17 -175 4 -68 21 -117 66 -179 17 -23 33 -60 36 -81 5 -41 10 -50 68
-116 25 -29 36 -37 32 -22 -4 12 43 -28 109 -92 63 -63 115 -119 115 -125 0
-7 9 -25 21 -41 24 -35 20 -70 -16 -124 -14 -19 -20 -35 -15 -35 9 0 -39 -107
-77 -172 -40 -69 -153 -364 -153 -400 0 -5 15 -8 33 -8 27 -1 30 -2 16 -13 -9
-7 -22 -23 -29 -37 l-13 -25 27 24 26 24 -14 -49 c-13 -43 -38 -333 -30 -343
2 -2 7 12 12 30 l9 34 9 -50 c4 -27 8 -87 9 -131 0 -45 3 -77 7 -71 4 6 9 9
11 7 9 -12 37 -159 37 -195 0 -52 11 -115 20 -115 3 0 5 15 2 33 -7 54 13 20
57 -98 23 -60 49 -121 59 -135 10 -14 32 -55 50 -92 32 -70 49 -89 37 -41 -6
24 -1 22 37 -21 24 -27 52 -63 63 -81 25 -40 72 -95 81 -95 3 0 -1 11 -10 25
-22 34 -20 42 6 19 21 -19 21 -19 13 1 -31 75 -46 130 -36 133 7 2 5 16 -5 40
-18 42 -32 192 -18 192 5 0 21 -31 36 -68 16 -37 39 -85 53 -107 l24 -40 1 50
c1 46 2 49 15 31 19 -26 19 -8 -1 39 -8 20 -13 39 -11 41 11 12 98 -211 112
-290 8 -41 9 -41 73 -21 26 8 82 19 124 23 l77 8 -6 -25 c-3 -14 -18 -69 -32
-121 l-26 -94 -72 -27 c-91 -34 -154 -70 -187 -110 -30 -35 -31 -39 -12 -65
13 -16 31 -20 143 -24 164 -7 193 -22 118 -60 -44 -23 -48 -101 -6 -115 38
-12 104 46 86 75 -3 5 3 14 14 19 16 9 23 6 40 -23 21 -33 19 -68 -3 -64 -50
10 -99 -48 -76 -91 17 -33 57 -27 96 14 38 40 47 42 75 16 l21 -19 -24 -14
c-12 -7 -36 -21 -53 -30 -52 -29 -42 -118 14 -118 29 0 71 39 71 66 0 15 6 24
16 24 13 0 15 -8 9 -52 -4 -28 -14 -67 -22 -86 -8 -19 -12 -36 -9 -39 14 -14
60 146 49 173 -6 15 60 76 138 127 l58 38 57 -38 c31 -21 82 -52 113 -70 59
-33 91 -72 91 -111 0 -54 -68 -141 -139 -177 -110 -56 -192 -66 -307 -40 -36
9 -68 14 -71 12 -2 -3 29 -15 69 -28 170 -55 352 -1 437 128 27 41 32 56 30
103 -2 61 -1 59 -114 133 -39 25 -58 48 -93 112 -51 92 -188 287 -229 327 -15
15 -41 30 -58 33 l-30 7 30 -20 c38 -24 72 -62 57 -62 -7 0 -12 5 -12 10 0 6
-4 10 -10 10 -5 0 -26 11 -46 25 -20 14 -46 25 -58 25 -51 1 -52 11 -7 131 23
63 48 117 54 121 21 13 215 9 324 -8 117 -17 276 -67 558 -174 105 -40 209
-75 233 -78 55 -6 65 -22 14 -22 -22 0 -59 -7 -82 -15 -23 -8 -56 -15 -73 -15
-69 0 -182 -180 -230 -367 -24 -91 -25 -93 -93 -157 l-69 -64 -6 30 c-4 17
-17 40 -30 52 -20 18 -21 18 -7 1 30 -38 31 -62 3 -123 -44 -96 -128 -165
-239 -197 -44 -13 -86 -16 -170 -14 -136 5 -165 17 -346 149 -69 49 -157 114
-197 142 -64 46 -74 59 -92 108 -36 101 -63 232 -58 274 4 26 2 35 -4 25 -19
-31 -4 -152 37 -298 21 -71 51 -101 264 -255 187 -136 237 -161 337 -176 161
-22 325 27 418 126 l20 21 -1 -70 -1 -71 -44 -34 c-97 -75 -210 -115 -321
-116 -65 0 -85 5 -140 32 -34 17 -85 50 -113 73 -27 23 -95 71 -150 107 -121
79 -213 154 -240 195 -11 18 -23 54 -26 82 l-6 50 -2 -52 -1 -53 -67 5 c-444
31 -912 101 -1143 170 -121 36 -122 38 -38 69 114 42 197 97 280 185 190 202
214 416 65 578 -64 69 -116 95 -203 101 -66 4 -79 2 -129 -23 -30 -16 -62 -36
-70 -46 -15 -16 -19 -16 -62 9 -64 35 -179 42 -254 16 -70 -25 -150 -100 -186
-172 -36 -74 -38 -178 -4 -262 51 -125 230 -339 333 -399 l51 -29 -59 -12
c-153 -31 -163 -42 -13 -14 l85 15 122 -40 c250 -83 588 -139 1126 -187 185
-16 190 -17 212 -44 13 -15 59 -56 104 -90 44 -35 80 -65 80 -67 0 -3 -8 -2
-19 2 -14 4 -21 -2 -31 -24 -7 -17 -18 -36 -26 -42 -21 -17 -18 -22 34 -49 26
-14 49 -28 52 -31 13 -15 50 -28 67 -23 13 4 14 3 5 -4 -10 -7 -8 -12 10 -24
54 -34 117 -57 178 -63 36 -4 93 -13 127 -20 35 -7 60 -9 57 -4 -3 5 -1 9 5 9
5 0 12 8 15 18 4 11 28 22 73 33 88 21 154 53 229 109 l60 46 36 -41 c77 -88
244 -150 383 -143 109 6 168 37 260 136 39 41 119 125 179 186 l110 111 378 3
378 3 0 -64 c0 -57 4 -70 38 -123 62 -96 173 -179 306 -229 54 -20 84 -25 164
-25 86 0 104 3 157 29 33 15 83 46 110 68 111 87 183 141 250 185 39 26 94 70
123 98 l53 52 525 -7 c447 -7 526 -10 533 -22 7 -14 203 -222 329 -351 72 -72
140 -103 247 -109 153 -10 289 38 393 140 77 75 101 160 67 240 -8 20 -15 47
-15 59 0 13 -11 35 -24 50 l-25 26 22 6 c12 3 37 6 54 6 56 0 402 49 532 76
68 13 170 40 227 58 l104 34 113 -23 c61 -12 137 -25 167 -29 30 -3 -7 7 -82
23 -187 39 -183 36 -118 73 30 17 92 69 138 116 238 245 284 451 137 619 -65
74 -137 107 -235 108 -61 0 -86 -5 -132 -27 -54 -25 -57 -25 -72 -9 -9 10 -40
31 -68 46 -109 59 -248 29 -341 -75 -62 -69 -90 -131 -95 -212 -14 -221 198
-482 461 -568 22 -7 35 -16 30 -20 -14 -13 -199 -58 -348 -85 -131 -23 -469
-65 -525 -65 -39 0 -116 77 -130 130 -55 208 -137 376 -209 426 -26 18 -162
52 -242 61 l-57 6 -38 138 c-28 102 -42 139 -53 140 -18 1 -9 4 32 13 42 10
22 26 -31 26 -41 0 -141 -23 -251 -58 -30 -10 -33 -10 -28 8 3 11 1 18 -4 14
-5 -3 -9 1 -10 8 -2 33 -9 53 -28 77 -12 14 -26 37 -31 50 -6 13 -22 37 -35
53 -29 34 -30 44 -10 64 17 18 45 107 45 143 l-1 26 -23 -27 c-13 -15 -34 -56
-46 -92 -15 -46 -27 -66 -38 -66 -18 0 -104 30 -112 39 -3 4 -91 8 -197 10
-208 4 -302 -7 -365 -40 -42 -22 -50 -17 -16 10 16 14 18 20 8 26 -9 5 -11 4
-6 -4 4 -6 0 -14 -9 -17 -9 -4 -21 -17 -26 -30 -4 -13 -14 -24 -21 -24 -9 0
-8 3 2 10 8 5 10 10 3 10 -6 0 -20 15 -31 34 -22 36 -98 94 -109 82 -4 -3 -1
-12 5 -18 7 -7 12 -19 12 -28 0 -8 16 -27 35 -43 23 -18 32 -33 29 -45 -5 -13
-4 -14 4 -3 12 17 27 -3 16 -21 -5 -8 0 -7 11 2 17 13 18 13 10 0 -5 -8 -19
-28 -31 -45 -34 -46 -54 -103 -54 -151 0 -43 -1 -44 -34 -44 -33 0 -142 -19
-239 -41 -27 -6 -50 -9 -52 -7 -10 10 -16 81 -19 268 -3 113 -3 201 -1 195 2
-5 6 -23 9 -38 6 -25 8 -26 22 -12 9 9 14 19 11 22 -4 3 -2 14 3 24 9 16 20
17 99 12 49 -3 97 -2 108 2 17 7 17 8 -2 16 -17 8 -16 8 5 3 14 -3 41 -9 60
-14 19 -4 29 -8 21 -9 -11 -1 -9 -6 7 -21 28 -26 30 -25 26 8 -2 15 -1 19 2
10 3 -10 10 -18 16 -18 5 0 7 -7 4 -16 -3 -8 -2 -13 2 -10 4 2 16 -16 26 -40
10 -24 22 -44 27 -44 12 0 12 72 0 103 -9 24 -9 25 20 17 17 -5 29 -5 29 1 0
5 44 9 98 10 116 0 220 13 477 58 28 5 62 7 78 6 15 -2 27 0 27 4 0 4 9 7 20
7 11 0 20 -4 20 -9 0 -5 8 -6 18 -2 9 4 44 12 77 17 33 4 82 20 109 34 55 29
92 27 149 -6 33 -20 145 -42 161 -32 5 3 7 -2 3 -11 -8 -22 -27 -291 -24 -349
1 -27 5 -48 9 -48 15 0 30 76 40 213 11 143 12 148 32 143 12 -3 29 -6 39 -6
16 0 17 -6 12 -47 -3 -27 -9 -61 -12 -76 -5 -26 -3 -28 17 -22 l23 7 -22 -30
c-11 -17 -21 -36 -21 -43 0 -22 42 24 61 66 10 22 34 56 55 75 34 33 36 34 29
10 -3 -14 -9 -34 -11 -45 l-5 -20 16 20 c9 11 21 40 28 63 6 24 20 48 30 54
17 9 18 7 12 -24 -4 -18 -16 -58 -26 -88 -24 -68 -23 -71 2 -40 20 24 20 24
14 2 -4 -12 -3 -37 1 -55 7 -31 9 -28 65 88 l58 120 1 -83 c0 -53 -6 -96 -15
-120 -9 -20 -13 -47 -10 -59 4 -19 -2 -41 -40 -138 -8 -19 -8 -19 12 -3 30 27
37 21 14 -11 -12 -16 -21 -32 -21 -37 0 -15 44 33 78 86 19 30 55 75 79 100
41 42 44 43 37 17 -11 -49 6 -28 43 50 20 43 47 92 59 108 12 17 27 47 34 67
6 21 27 75 45 120 33 80 34 82 35 43 1 -66 20 -17 26 68 5 66 28 201 41 237 4
12 7 11 13 -5 4 -12 7 10 7 55 0 41 3 107 8 145 8 69 8 70 21 40 13 -27 13
-22 9 55 -3 47 -7 119 -10 160 -2 41 -9 91 -14 110 -16 53 -13 58 14 25 31
-39 31 -27 0 35 l-25 50 22 2 c13 1 31 2 40 3 9 0 20 3 23 6 10 10 -65 230
-115 334 -26 55 -82 152 -124 215 l-77 115 38 17 c52 23 60 22 35 -5 -39 -41
-23 -41 21 0 24 22 82 59 128 83 86 43 192 113 242 158 15 14 27 21 27 15 0
-6 -7 -16 -15 -23 -20 -17 -58 -70 -50 -70 3 0 26 20 51 45 39 40 70 84 188
262 16 24 32 39 36 33 9 -14 46 68 71 155 23 78 37 161 48 280 l7 80 8 -50
c13 -74 25 -99 25 -53 1 51 -19 189 -30 210 -5 10 -14 52 -19 95 -6 43 -12 94
-15 113 l-5 35 15 -35 15 -35 -6 50 c-3 28 -18 86 -34 130 -110 312 -130 369
-126 372 2 2 25 -39 52 -91 26 -53 49 -94 51 -92 5 5 -33 108 -56 154 -12 23
-35 57 -52 76 -30 34 -85 156 -70 156 4 0 25 -25 46 -55 43 -64 59 -78 45 -40
-14 37 -55 94 -79 111 -12 9 -21 24 -21 34 0 10 -14 54 -31 97 -17 43 -41 112
-54 153 -12 41 -32 102 -44 135 -29 84 -45 259 -37 412 5 126 5 127 -8 63 -33
-154 -39 -259 -21 -365 9 -55 31 -138 50 -185 19 -47 49 -128 68 -180 20 -52
47 -126 61 -165 30 -82 30 -81 11 -65 -24 20 -18 3 20 -51 59 -86 169 -453
201 -674 20 -133 14 -391 -11 -500 -57 -252 -235 -480 -496 -636 -87 -52 -267
-132 -286 -127 -4 1 -32 -6 -62 -15 -165 -51 -336 -62 -744 -47 -251 9 -362
10 -456 1 -149 -14 -395 -48 -436 -61 -70 -22 -339 -70 -449 -80 -66 -7 -151
-9 -190 -5 -160 15 -398 95 -567 191 -295 166 -474 426 -534 772 -29 169 -19
431 20 542 8 23 15 50 15 59 0 9 18 66 41 126 53 147 92 275 90 303 -1 25 64
261 99 359 66 183 72 227 45 330 -19 74 -88 209 -132 259 l-34 39 45 -85 c106
-201 119 -315 62 -505 -19 -60 -48 -150 -65 -199 -35 -100 -35 -99 -21 -91 13
8 13 8 -5 -53 -9 -29 -21 -52 -28 -52 -7 0 -41 14 -75 30 -71 33 -87 37 -57
13 19 -15 19 -15 -10 -9 -49 11 -249 111 -287 145 -19 17 -38 28 -41 25 -7 -7
-107 44 -107 54 0 23 -201 102 -430 169 -47 13 -92 27 -100 30 -9 3 3 11 30
20 141 48 261 199 311 390 33 128 11 205 -73 253 -63 36 -171 35 -250 -2 -62
-29 -142 -97 -164 -139 -19 -37 -18 -84 3 -104 54 -55 184 -45 227 17 39 55
-7 93 -76 62 -21 -9 -38 -21 -38 -26 0 -11 7 -10 31 5 18 10 23 9 40 -12 20
-24 20 -24 -1 -45 -42 -42 -160 -13 -168 42 -8 52 70 146 151 182 172 76 325
-16 303 -182 -10 -72 -60 -196 -108 -268 -65 -98 -181 -171 -271 -170 -31 1
-31 1 -12 16 19 15 18 16 -15 10 -19 -3 -51 -9 -71 -12 l-35 -6 -12 108 c-17
158 -46 251 -125 404 -180 349 -209 411 -248 535 -65 205 -130 314 -198 330
-14 3 -33 7 -41 9 -8 2 -28 1 -45 -3z m-30 -999 c24 -35 25 -37 6 -40 -27 -4
-70 26 -77 54 -15 57 28 49 71 -14z m-420 -290 c-2 -2 -15 4 -30 14 -25 16
-26 19 -9 25 13 4 22 0 31 -15 6 -11 10 -22 8 -24z m-64 2 c13 -14 39 -32 56
-39 21 -9 45 -34 68 -69 19 -30 40 -58 45 -61 6 -4 8 -16 5 -28 -4 -12 -3 -17
2 -12 11 14 33 17 33 5 0 -14 -75 -50 -103 -50 -30 0 -97 27 -97 39 0 4 -12
25 -26 46 -46 68 -83 146 -77 161 6 15 36 32 59 33 6 1 21 -11 35 -25z m233
-96 l27 -43 -30 35 c-27 32 -38 50 -27 50 2 0 15 -19 30 -42z m1153 -69 c62
-16 157 -45 210 -65 147 -54 413 -187 466 -232 25 -22 61 -43 79 -47 18 -4 71
-21 118 -39 47 -18 115 -41 151 -50 l66 -17 -43 -85 c-24 -47 -44 -95 -44
-107 0 -18 2 -20 11 -7 9 12 10 11 4 -5 -4 -11 -22 -76 -41 -145 -39 -140 -63
-210 -74 -210 -4 0 -13 7 -20 15 -20 24 -168 104 -235 127 -135 48 -324 18
-462 -73 -172 -112 -314 -322 -373 -549 -28 -106 -38 -316 -21 -416 54 -306
307 -565 616 -629 259 -54 528 88 691 365 24 41 50 90 56 108 7 17 15 32 18
32 21 0 79 -56 100 -96 17 -33 35 -54 58 -63 17 -8 32 -18 32 -23 0 -14 -61
-168 -67 -168 -2 0 -1 15 3 32 6 30 5 31 -11 18 -12 -10 -16 -24 -13 -49 5
-37 -29 -132 -98 -276 -27 -59 -42 -77 -83 -103 -227 -147 -546 -201 -866
-146 -98 16 -270 69 -515 157 -325 116 -462 151 -690 177 -102 11 -225 25
-275 31 -346 40 -515 108 -738 298 -354 301 -470 670 -351 1117 19 74 57 178
69 192 2 2 20 -5 42 -16 66 -34 155 -55 235 -56 43 -1 78 -2 78 -2 0 -1 -11
-26 -25 -56 -50 -110 -68 -201 -69 -358 -1 -124 2 -157 22 -227 62 -216 219
-384 419 -451 105 -34 287 -36 406 -4 102 28 227 90 304 153 220 175 349 489
330 802 -9 137 -28 213 -87 333 -79 163 -180 249 -345 295 -154 42 -363 12
-540 -76 -49 -25 -121 -71 -160 -102 l-69 -56 -51 17 c-42 16 -153 64 -163 72
-2 1 12 22 30 46 19 24 52 74 73 112 39 67 40 67 54 44 33 -53 109 -116 160
-133 85 -28 94 -15 22 35 -67 47 -141 139 -141 176 0 39 135 154 246 210 95
49 97 49 193 49 90 0 99 2 133 28 28 22 42 26 65 21 25 -7 27 -6 14 10 -29 35
-1 26 61 -19 74 -55 129 -85 157 -85 21 0 112 -32 146 -51 10 -7 42 -18 70
-25 27 -7 83 -22 124 -33 92 -26 153 -26 207 -2 77 35 113 105 121 234 l6 88
46 -7 c25 -3 97 -19 158 -35z m4957 -99 c5 -17 4 -20 -2 -10 -5 8 -13 26 -16
40 -5 17 -4 20 2 10 5 -8 13 -26 16 -40z m-5326 -27 c17 -24 15 -73 -5 -95
-36 -40 -113 -8 -113 47 0 39 44 79 78 70 15 -3 33 -13 40 -22z m-1368 -178
c-7 -8 -17 -15 -22 -15 -6 0 -5 7 2 15 7 8 17 15 22 15 6 0 5 -7 -2 -15z m784
-240 c180 -53 320 -235 370 -487 16 -79 21 -287 7 -322 -6 -17 -9 -16 -26 10
-63 97 -175 180 -295 220 -85 28 -243 26 -338 -5 -230 -75 -372 -267 -372
-501 0 -170 92 -352 225 -448 l30 -21 -49 -1 c-126 -1 -287 70 -387 170 -80
81 -147 209 -174 334 -23 103 -16 307 14 415 69 256 247 467 484 576 178 82
361 103 511 60z m-922 -210 c35 -8 78 -15 97 -15 l33 0 -36 -40 c-19 -22 -52
-65 -73 -96 l-37 -56 -50 6 c-54 6 -296 84 -296 95 0 3 11 23 25 44 20 28 33
37 54 37 37 0 88 18 130 46 31 21 36 22 62 8 15 -7 56 -21 91 -29z m2463 -130
c86 -23 150 -55 232 -116 69 -52 72 -56 75 -99 l3 -45 12 35 11 35 1 -50 c1
-27 -4 -99 -9 -159 -6 -61 -8 -124 -4 -140 l7 -31 8 25 c7 25 7 24 9 -5 1 -16
3 -68 5 -115 2 -89 24 -161 59 -189 16 -13 15 -10 -2 25 -18 35 -36 104 -28
104 2 0 14 -28 26 -62 12 -35 37 -92 55 -128 18 -36 35 -78 39 -95 4 -16 19
-47 33 -69 l25 -38 -27 -63 c-46 -108 -98 -187 -175 -266 -132 -134 -290 -198
-460 -186 -82 6 -182 31 -236 60 -25 13 -24 14 42 30 204 50 368 208 419 404
45 174 -9 375 -134 501 -163 162 -433 199 -653 87 -38 -19 -68 -33 -68 -31 0
14 44 125 73 183 68 139 155 242 267 319 128 87 260 114 395 79z m-1524 -254
c138 -47 244 -128 308 -235 33 -55 34 -58 22 -109 -18 -82 -75 -213 -122 -283
-44 -65 -55 -74 -57 -51 0 6 -2 20 -4 29 -2 9 2 18 7 19 6 0 22 10 38 21 28
20 35 44 15 50 -8 3 -2 13 15 28 30 26 27 40 -9 40 -31 0 -30 10 1 40 15 14
23 30 20 40 -3 10 8 29 30 50 36 35 31 59 -8 37 -15 -9 -21 -9 -24 0 -3 8 -14
11 -29 7 -25 -7 -32 4 -13 23 6 6 9 17 7 24 -3 8 -10 0 -18 -18 -8 -17 -18
-29 -22 -27 -4 3 -8 -2 -8 -10 0 -8 5 -18 10 -21 6 -3 10 -11 10 -18 0 -6 -22
14 -49 44 -56 62 -120 98 -190 106 -47 5 -50 4 -65 -26 -31 -59 -104 -82 -162
-51 -24 14 -28 13 -46 -10 -10 -14 -26 -33 -35 -44 -50 -61 -57 -191 -15 -273
22 -41 22 -42 2 -48 -31 -10 -13 -25 20 -18 35 7 37 1 10 -37 -27 -38 -8 -50
31 -21 23 17 29 18 29 7 0 -9 -9 -20 -20 -26 -29 -16 -26 -44 4 -36 23 6 23 4
18 -39 -5 -52 9 -59 48 -25 13 11 30 20 38 20 8 0 20 7 27 17 11 15 14 14 34
-6 17 -17 25 -19 42 -11 11 6 25 23 32 38 16 38 16 38 33 14 19 -28 39 -28 59
0 8 13 23 23 33 23 12 0 18 10 20 33 3 28 6 31 22 22 10 -5 27 -7 37 -4 27 8
-68 -78 -133 -121 -74 -49 -201 -101 -285 -116 -66 -12 -67 -12 -110 18 -114
79 -195 201 -224 339 -20 92 -19 136 4 226 27 104 63 171 130 241 99 104 197
146 347 146 64 1 107 -5 145 -18z m1262 -271 c211 -65 367 -277 367 -498 0
-257 -220 -500 -467 -513 -52 -3 -97 26 -188 122 -167 177 -244 413 -217 661
7 61 17 119 22 128 12 23 95 75 150 96 104 37 220 39 333 4z m-1090 -125 c-3
-9 -8 -14 -10 -11 -3 3 -2 9 2 15 9 16 15 13 8 -4z m-1464 -490 c0 -5 -9 1
-19 14 -11 13 -20 28 -20 35 0 6 9 0 20 -14 11 -14 20 -29 19 -35z m3828 -284
c58 -30 114 -66 131 -86 47 -53 86 -66 150 -48 18 4 21 8 10 15 -9 7 -7 8 7 3
10 -3 54 -9 97 -12 43 -3 78 -8 78 -10 0 -3 -10 -13 -22 -23 -36 -29 -14 -34
29 -7 31 21 56 26 138 32 55 4 151 15 213 26 63 10 117 19 120 19 4 0 -6 -11
-23 -25 -44 -36 -12 -30 49 9 52 33 55 34 142 30 66 -3 83 -2 66 6 -13 5 -36
7 -50 4 -20 -4 -23 -3 -12 5 8 5 37 13 65 17 27 3 61 11 74 16 35 13 38 2 4
-15 -15 -8 -42 -13 -58 -10 -25 3 -27 2 -13 -7 9 -6 15 -17 12 -24 -7 -19 19
-32 81 -41 28 -4 55 -10 60 -15 43 -34 302 -53 415 -30 27 5 62 5 87 -1 33 -7
50 -5 78 8 19 9 35 20 35 24 0 4 10 9 23 13 18 5 19 8 7 16 -9 5 -19 5 -24 0
-5 -5 -15 -5 -25 0 -29 17 -145 44 -185 44 -22 0 -33 2 -26 4 7 3 -1 10 -18
18 -23 9 -41 10 -68 2 -20 -5 -45 -7 -55 -5 -11 3 -17 1 -13 -4 3 -5 -1 -9 -8
-9 -10 0 -10 -2 1 -9 11 -7 9 -10 -8 -16 -23 -7 -71 7 -146 44 -5 3 -4 -2 3
-11 10 -13 10 -18 1 -24 -8 -4 -9 -3 -5 4 4 7 -3 14 -19 18 -13 3 -22 10 -19
15 3 5 -5 9 -18 10 -20 1 -18 3 11 16 80 34 481 36 616 2 52 -13 82 -7 45 10
-23 10 -21 11 15 6 22 -2 102 -5 178 -5 98 0 136 -3 131 -11 -4 -8 11 -10 50
-7 54 3 56 2 62 -25 6 -27 40 -55 52 -42 4 3 -1 20 -11 36 -9 17 -17 35 -17
40 0 9 57 26 183 54 75 16 79 16 99 -2 36 -32 149 -212 193 -307 43 -93 110
-284 103 -292 -3 -2 -40 -13 -84 -24 -95 -24 -174 -61 -212 -99 l-27 -28 3 70
c5 78 -11 189 -36 252 -24 59 -103 207 -109 201 -6 -6 29 -101 56 -155 32 -61
49 -158 49 -271 0 -67 -3 -94 -7 -75 -13 50 -19 11 -25 -145 -8 -236 -48 -552
-94 -745 -21 -85 -29 -88 -142 -51 -184 59 -281 71 -580 71 -293 -1 -301 -2
-1055 -105 -362 -49 -552 -71 -582 -65 -34 6 -38 13 -48 90 -16 124 -57 261
-106 353 -28 50 -53 92 -55 92 -10 0 8 -65 34 -119 14 -30 31 -84 38 -120 7
-36 16 -76 20 -88 10 -34 -11 -28 -60 17 -24 22 -49 40 -55 40 -22 0 30 -60
80 -93 39 -26 50 -39 55 -67 3 -19 8 -43 11 -54 4 -16 -1 -14 -33 10 -22 16
-42 33 -46 39 -5 6 -8 3 -8 -7 0 -10 22 -35 49 -55 28 -21 50 -44 50 -51 1 -8
-4 -10 -11 -6 -11 7 -8 -26 7 -71 14 -40 -98 141 -145 235 -102 203 -208 484
-239 633 -14 66 -20 81 -20 54 -2 -87 42 -250 126 -462 86 -218 182 -396 285
-527 16 -20 37 -63 47 -95 l19 -58 -45 50 c-208 231 -360 522 -447 857 -33
123 -36 148 -41 324 l-5 191 43 -10 c41 -9 43 -12 59 -66 20 -67 97 -186 166
-258 46 -48 49 -55 56 -119 7 -66 11 -82 20 -73 8 7 35 410 32 459 -2 25 -5
63 -6 85 -1 32 -3 36 -10 20 -5 -11 -9 -35 -9 -54 -1 -25 -5 -32 -16 -27 -43
17 -49 17 -25 -3 l25 -21 -55 16 c-30 8 -110 33 -177 55 -67 21 -136 39 -152
39 -44 0 -81 17 -81 37 0 10 30 88 66 173 120 282 164 390 164 403 0 6 4 18 9
26 8 13 12 13 27 0 16 -13 16 -12 4 10 l-13 24 44 -25 c24 -14 90 -49 146 -77z
m-3497 -41 c0 -17 -15 -11 -28 11 -12 19 -11 19 8 9 11 -6 20 -15 20 -20z
m4821 -7 c-11 -5 -11 -7 0 -15 11 -8 10 -9 -3 -4 -10 3 -18 1 -18 -4 0 -6 -10
-10 -22 -10 -21 0 -21 2 7 19 17 11 35 20 40 19 6 0 4 -2 -4 -5z m-4776 -19
c14 -9 25 -21 25 -26 0 -15 -40 -68 -51 -68 -14 0 -11 60 4 61 10 0 10 2 0 6
-12 4 -19 43 -8 43 3 0 17 -7 30 -16z m5125 6 c-8 -5 -19 -10 -25 -10 -5 0 -3
5 5 10 8 5 20 10 25 10 6 0 3 -5 -5 -10z m-306 -14 c-21 -15 -30 -14 -19 3 3
6 14 11 23 11 13 0 13 -2 -4 -14z m-1139 -18 c5 4 5 1 1 -6 -6 -10 -1 -11 21
-7 26 5 26 5 5 -5 -17 -7 -29 -6 -48 6 -28 19 -32 29 -5 15 10 -6 22 -7 26 -3z
m1025 2 c0 -5 -4 -10 -10 -10 -5 0 -10 5 -10 10 0 6 5 10 10 10 6 0 10 -4 10
-10z m-4575 -49 c60 -29 67 -35 49 -42 -39 -14 -35 -26 5 -16 31 8 55 7 113
-7 105 -26 193 -43 273 -52 l70 -7 -34 -14 c-51 -22 -30 -26 39 -9 34 9 78 14
98 11 20 -2 78 -10 127 -17 l90 -12 -39 -11 c-64 -19 -23 -28 45 -10 56 14 69
14 137 0 41 -9 79 -18 83 -21 5 -3 43 -14 86 -25 145 -37 240 -75 306 -121 31
-22 52 -16 21 6 -10 8 58 -11 152 -42 94 -31 170 -60 168 -64 -12 -20 70 -31
345 -44 l134 -7 -24 -19 c-26 -21 -21 -20 56 10 28 11 82 25 120 31 59 8 130
29 270 76 11 4 -1 -7 -27 -24 -27 -17 -48 -33 -48 -36 0 -8 75 28 116 56 l42
29 37 -88 c20 -48 39 -101 42 -118 4 -26 2 -32 -18 -37 -13 -4 -36 -7 -51 -7
-14 0 -99 -23 -188 -51 -177 -56 -190 -55 -190 7 0 18 -5 36 -11 40 -17 10 -1
-429 18 -506 6 -22 7 -21 14 15 4 22 8 66 8 97 1 53 5 62 56 130 30 40 65 99
78 130 20 52 26 59 64 72 32 11 43 12 43 3 6 -131 -4 -313 -20 -381 -60 -260
-175 -518 -318 -718 -31 -43 -57 -77 -58 -75 -9 9 40 138 75 195 97 160 218
469 256 650 22 105 17 142 -6 47 -37 -153 -87 -289 -181 -495 -41 -90 -115
-230 -122 -230 -6 0 22 159 30 172 4 7 15 18 25 25 9 7 19 23 22 35 l6 23 -20
-24 -20 -24 7 44 c3 24 19 77 35 117 16 41 29 83 28 95 0 15 -2 17 -6 7 -3 -8
-23 -44 -44 -80 -46 -79 -79 -204 -86 -322 l-6 -87 -51 5 c-28 3 -314 39 -636
81 -710 90 -871 102 -1095 80 -143 -15 -312 -49 -377 -77 -27 -12 -28 -12 156
27 112 25 139 27 361 26 235 0 388 -14 705 -63 189 -30 806 -100 877 -100 26
0 53 -4 59 -8 14 -9 -40 -207 -86 -315 -16 -39 -28 -73 -26 -75 5 -4 27 43 60
123 10 22 28 51 40 65 13 14 29 36 36 49 7 13 37 58 67 100 53 74 58 74 37 1
-2 -9 2 -7 11 5 9 11 26 54 40 96 33 106 88 215 96 192 4 -11 12 10 23 57 23
99 64 206 65 168 2 -48 18 -31 24 25 4 28 14 88 22 132 9 44 16 109 16 145
l-1 65 20 -35 c23 -42 24 -35 5 50 -8 36 -14 101 -14 145 1 71 2 77 12 50 l11
-30 6 35 c4 30 9 35 35 38 17 1 49 5 73 8 l42 5 0 45 c0 24 -9 67 -20 96 -11
28 -18 53 -17 55 2 1 27 0 56 -4 l53 -6 -7 -45 c-4 -30 -3 -42 4 -37 6 3 11
16 11 28 0 12 5 29 10 37 13 20 2 -175 -15 -260 -8 -36 -12 -66 -10 -68 2 -2
10 9 19 25 l15 28 1 -56 c0 -31 11 -116 25 -190 13 -74 26 -147 28 -164 3 -25
4 -23 6 10 1 26 4 36 11 29 16 -16 69 -174 76 -229 5 -36 9 -44 14 -30 6 16
14 6 44 -53 20 -40 48 -107 61 -150 14 -42 32 -88 41 -102 14 -24 15 -23 8 20
l-6 45 46 -65 c26 -36 54 -78 64 -95 9 -16 42 -57 72 -90 54 -57 87 -99 139
-168 21 -29 23 -30 16 -7 -4 14 -13 35 -21 47 -20 31 -13 29 48 -14 88 -61
138 -114 138 -145 0 -26 -3 -28 -42 -28 -47 0 -141 -14 -173 -26 l-20 -7 20
17 c20 17 20 17 -5 10 -31 -8 -70 -40 -99 -79 -12 -16 -47 -64 -77 -105 -31
-41 -83 -124 -116 -183 -61 -108 -64 -111 -163 -175 -11 -7 -33 -20 -48 -30
-79 -47 -106 -95 -86 -150 7 -22 7 -24 -3 -12 -11 13 -66 15 -400 12 -214 -2
-388 -1 -388 2 0 3 8 20 19 38 17 30 17 38 5 83 l-13 50 4 -48 c7 -74 7 -73
-259 -348 -180 -185 -213 -207 -324 -216 -87 -7 -153 8 -259 58 -127 61 -187
148 -168 246 l6 36 29 -50 c57 -99 155 -154 285 -161 150 -8 264 34 371 135
149 143 294 305 303 341 6 21 12 93 15 162 5 132 1 118 -25 -78 -11 -78 -14
-87 -59 -140 -82 -98 -313 -318 -357 -341 -141 -71 -336 -68 -440 8 -90 65
-130 164 -83 206 l21 19 -6 -26 c-10 -39 25 -108 73 -146 60 -48 115 -65 212
-66 80 -1 90 2 160 38 101 51 112 64 20 24 -66 -28 -86 -32 -165 -32 -80 -1
-97 3 -156 30 -82 39 -123 87 -123 146 0 38 5 45 99 134 55 51 105 93 110 93
8 1 94 -40 172 -82 14 -8 23 -25 27 -50 7 -42 28 -88 57 -126 26 -32 24 -22
-5 30 -29 52 -44 119 -27 119 6 0 16 -11 21 -24 24 -64 110 -56 110 9 0 29
-36 65 -65 65 -12 0 -29 6 -39 13 -16 12 -15 14 7 35 l24 23 29 -24 c39 -32
62 -39 85 -27 40 22 4 103 -44 99 -53 -4 -59 9 -32 61 18 35 35 31 55 -13 18
-38 61 -57 84 -37 24 19 21 87 -5 100 -11 7 -27 9 -34 6 -7 -2 -21 1 -31 8
-16 13 -15 15 15 30 18 10 74 26 124 36 51 10 100 21 110 25 25 10 33 52 13
74 -14 16 -83 51 -129 65 -12 4 -17 14 -15 28 2 17 -1 22 -12 18 -8 -3 -49 -4
-90 -4 -89 2 -153 22 -406 128 -331 138 -448 166 -703 166 -219 0 -451 -24
-521 -53 -12 -5 -20 10 -39 69 -28 89 -83 206 -117 251 -13 17 -24 38 -24 47
0 8 -10 16 -22 18 -28 4 -36 38 -76 293 -40 251 -52 369 -52 492 0 110 -9 157
-21 113 -11 -39 -10 105 1 182 5 37 28 112 50 167 59 145 48 154 -20 16 -50
-100 -61 -134 -70 -203 -6 -46 -8 -103 -4 -128 l7 -46 -51 37 c-56 40 -138 72
-208 82 -24 3 -47 10 -50 14 -9 15 90 262 144 360 30 53 87 138 128 190 40 52
74 98 74 102 0 5 3 7 8 5 4 -2 39 -19 77 -37z m4715 30 c0 -6 -4 -13 -10 -16
-5 -3 -10 1 -10 9 0 9 5 16 10 16 6 0 10 -4 10 -9z m-4899 -58 c-7 -30 -32
-73 -43 -73 -3 0 5 23 18 50 27 56 34 63 25 23z m5067 20 c-10 -2 -26 -2 -35
0 -10 3 -2 5 17 5 19 0 27 -2 18 -5z m337 -4 c5 -7 -5 -8 -32 -3 -51 9 -54 14
-10 14 20 0 39 -5 42 -11z m-202 -6 c-7 -2 -19 -2 -25 0 -7 3 -2 5 12 5 14 0
19 -2 13 -5z m-2172 -365 l-3 -63 -21 42 c-20 41 -20 43 -2 63 10 11 21 20 24
20 3 0 4 -28 2 -62z m3484 -140 c10 -36 15 -95 15 -192 0 -458 -144 -889 -379
-1136 -57 -59 -62 -62 -56 -35 25 112 32 276 16 350 -5 26 -12 15 -63 -105
-54 -129 -57 -133 -57 -90 0 25 10 77 22 115 18 55 29 73 50 83 15 7 27 20 27
28 0 9 5 12 12 8 6 -4 8 -3 4 4 -3 6 3 39 13 74 11 35 35 127 53 205 18 77 36
139 39 137 3 -2 12 42 19 98 11 78 11 103 2 106 -8 2 -12 28 -12 70 0 52 5 75
23 102 12 19 40 69 62 110 40 75 40 75 105 97 36 12 70 22 77 23 7 0 19 -23
28 -52z m-3154 1 c24 -7 53 -22 63 -32 13 -13 21 -16 24 -9 5 17 27 15 42 -3
15 -18 34 -20 24 -2 -5 8 -4 9 4 2 13 -12 4 -185 -9 -185 -5 0 -6 -15 -3 -32
6 -31 3 -29 -64 41 -41 44 -86 105 -111 151 -45 84 -48 95 -27 87 8 -3 34 -11
57 -18z m2911 -68 c-9 -16 -18 -28 -21 -26 -4 5 27 55 34 55 2 0 -4 -13 -13
-29z m-6363 -97 c48 -14 53 -18 86 -82 19 -37 48 -85 64 -107 27 -37 29 -49
35 -150 5 -111 -1 -118 -24 -26 -18 71 -29 33 -17 -61 10 -84 21 -109 29 -70
2 9 8 -16 12 -55 4 -46 12 -73 19 -73 8 0 22 -43 36 -107 24 -111 65 -230 85
-248 17 -15 34 -73 41 -135 6 -52 5 -54 -9 -30 -9 14 -32 67 -52 118 -20 50
-39 92 -44 92 -24 0 -16 -266 10 -334 14 -37 -1 -32 -44 14 -193 209 -321 528
-356 889 -13 137 -13 291 1 347 12 45 13 46 45 40 18 -4 55 -13 83 -22z m2841
-47 c0 -16 -66 -118 -109 -167 l-30 -35 -1 55 c0 30 -3 72 -6 93 -5 36 -4 38
15 33 12 -3 30 -9 41 -12 12 -3 27 1 36 10 8 9 12 16 7 17 -8 0 27 17 40 18 4
1 7 -5 7 -12z m-2689 -66 c17 -43 2 -33 -31 21 -32 52 -32 53 -5 28 15 -14 31
-36 36 -49z m4833 -735 c-6 -17 -13 -18 -94 -18 -70 0 -69 0 -67 22 1 22 46
29 48 8 0 -10 2 -10 6 0 2 6 9 12 15 12 6 0 8 -7 4 -15 -9 -25 36 -17 59 10
15 19 21 21 27 10 5 -7 5 -20 2 -29z m-49 15 c-3 -6 -11 -11 -17 -11 -6 0 -6
6 2 15 14 17 26 13 15 -4z m118 2 c-7 -2 -19 -2 -25 0 -7 3 -2 5 12 5 14 0 19
-2 13 -5z m-255 -10 c-10 -2 -28 -2 -40 0 -13 2 -5 4 17 4 22 1 32 -1 23 -4z
m-101 -9 c-3 -3 -12 -4 -19 -1 -8 3 -5 6 6 6 11 1 17 -2 13 -5z m-82 -14 c-3
-5 -30 -9 -58 -8 l-52 1 50 7 c28 4 54 8 58 8 5 1 5 -2 2 -8z m-402 -47 c-7
-2 -19 -2 -25 0 -7 3 -2 5 12 5 14 0 19 -2 13 -5z m284 1 c-3 -3 -12 -4 -19
-1 -8 3 -5 6 6 6 11 1 17 -2 13 -5z m1478 -28 c-14 -19 -37 -42 -51 -50 -24
-16 -24 -16 -24 18 0 57 7 66 57 66 l44 0 -26 -34z m-2120 -63 c22 -11 51 -23
65 -26 21 -5 28 -16 43 -79 10 -40 22 -107 26 -148 4 -42 11 -82 16 -89 10
-18 -68 36 -117 80 -21 19 -45 52 -53 74 l-15 40 45 -50 c59 -65 57 -51 -4 28
-46 59 -75 120 -70 149 1 7 -3 26 -9 41 -17 40 -15 43 11 20 12 -11 40 -30 62
-40z m135 -81 c0 -21 -2 -24 -10 -12 -13 20 -13 53 0 45 6 -3 10 -18 10 -33z
m1189 18 c24 -6 50 -9 57 -6 8 3 15 -7 20 -27 8 -41 41 -106 68 -136 11 -13
14 -20 6 -16 -8 5 3 -15 25 -43 l40 -53 50 5 c28 2 58 7 67 11 12 5 20 1 24
-11 4 -11 26 -69 50 -131 24 -61 44 -115 44 -120 0 -5 -17 -15 -37 -23 -70
-25 -101 -52 -129 -113 -24 -55 -25 -65 -19 -148 4 -49 10 -87 14 -84 13 7
115 -27 153 -53 31 -20 42 -36 59 -91 12 -36 23 -102 26 -146 l5 -80 -116 115
c-85 84 -119 124 -125 150 -8 31 -25 165 -35 275 -2 22 -4 -32 -3 -120 0 -99
-5 -182 -13 -219 -10 -45 -11 -63 -2 -77 7 -10 12 -21 12 -24 0 -3 -218 -5
-485 -5 l-485 0 0 69 c0 38 -4 71 -10 73 -5 2 2 44 17 98 34 127 38 256 7 297
-33 44 -126 112 -190 138 l-59 24 -3 61 c-3 66 3 73 74 83 16 2 47 9 70 16 38
12 42 17 58 70 10 31 28 79 41 106 13 28 27 63 30 77 7 28 53 52 130 68 54 12
509 3 564 -10z m-5793 -87 c59 -20 138 -96 174 -168 21 -41 25 -64 25 -132 0
-77 -3 -86 -48 -176 -83 -163 -206 -268 -394 -336 l-78 -29 -69 35 c-120 60
-294 261 -345 398 -44 118 -17 233 75 314 77 68 180 88 277 55 57 -19 63 -27
42 -56 -29 -42 -37 -94 -21 -130 23 -50 51 -78 80 -78 76 0 102 135 40 209
l-25 30 34 25 c75 57 145 69 233 39z m7832 -54 c29 -16 55 -36 58 -44 3 -7 -4
-27 -17 -44 -31 -42 -40 -113 -20 -153 35 -68 82 -67 128 1 28 42 29 90 3 141
-11 22 -20 41 -20 44 0 13 94 38 146 38 109 1 201 -58 251 -160 71 -144 8
-298 -213 -516 -44 -44 -91 -78 -138 -101 l-71 -36 -64 25 c-158 63 -269 147
-352 269 -91 131 -115 278 -65 381 82 167 240 232 374 155z m-8094 -83 c22
-46 21 -99 -2 -120 -18 -15 -20 -15 -34 1 -42 49 -47 83 -18 131 23 38 31 36
54 -12z m8217 -41 c19 -43 19 -47 4 -80 -9 -19 -23 -39 -31 -46 -31 -26 -60
36 -43 94 9 31 36 77 45 77 3 0 14 -20 25 -45z m-1684 17 c1 -10 29 -94 62
-187 34 -92 60 -169 59 -170 -2 -1 -17 -11 -35 -23 -17 -12 -33 -22 -36 -22
-8 0 -137 366 -137 389 0 6 36 19 80 30 3 0 6 -7 7 -17z m-4763 -39 c-10 -41
-119 -363 -135 -399 l-14 -31 -37 16 -36 16 43 120 c24 66 58 162 75 213 l33
92 38 0 c38 0 39 -1 33 -27z m3286 -167 c0 -99 -1 -104 -22 -110 -60 -16 -63
-12 -66 75 -3 71 -2 81 12 75 45 -18 48 -15 19 13 -18 17 -33 33 -33 36 0 3
15 -2 33 -11 l32 -17 -19 22 c-19 21 -19 21 12 21 l32 0 0 -104z m-156 -22
c20 -8 21 -24 2 -24 -8 0 -16 7 -20 15 -6 17 -4 18 18 9z m-99 -34 c-3 -5 -12
-10 -18 -10 -7 0 -6 4 3 10 19 12 23 12 15 0z m48 -4 c4 -10 1 -13 -9 -9 -7 3
-14 9 -14 14 0 14 17 10 23 -5z m93 2 c4 -7 3 -8 -4 -4 -7 4 -12 2 -12 -4 0
-6 -5 -8 -11 -4 -8 4 -7 9 2 15 18 11 17 11 25 -3z m-3130 -40 c36 -17 29 -25
-18 -25 -24 1 -55 -2 -70 -6 -26 -7 -26 -6 -15 24 11 28 15 30 45 24 19 -3 45
-11 58 -17z m1314 -39 l0 -61 -37 7 c-50 9 -52 11 -48 43 2 15 4 37 4 50 1 19
6 22 41 22 l40 0 0 -61z m1658 -26 c70 -42 149 -94 176 -115 27 -21 54 -38 61
-38 7 0 16 -7 19 -16 8 -20 -2 -54 -15 -54 -5 0 -39 31 -76 68 -64 64 -268
202 -300 202 -14 0 -17 12 -6 23 10 10 6 12 141 -70z m-3222 51 c-3 -9 -9 -26
-12 -38 -4 -17 -18 -26 -54 -35 -27 -7 -61 -22 -75 -33 -25 -20 -74 -22 -78
-3 -2 15 83 75 144 101 66 27 83 29 75 8z m1454 -19 c0 -21 -3 -23 -22 -16
-38 14 -100 1 -106 -21 -4 -15 -10 -18 -31 -13 -14 4 -30 10 -34 14 -11 11 55
41 112 51 77 13 81 12 81 -15z m3921 -2 c13 -17 13 -17 -6 -3 -11 8 -22 16
-24 17 -2 2 0 3 6 3 6 0 17 -8 24 -17z m-4162 -33 c-41 -43 -56 -51 -40 -22
15 28 51 62 65 62 7 0 -4 -18 -25 -40z m461 -2 c22 -13 38 -27 37 -33 -2 -5
-21 -14 -43 -19 -21 -5 -70 -17 -109 -26 -90 -24 -108 -13 -25 15 72 24 96 48
68 69 -10 7 -18 18 -18 24 0 14 32 3 90 -30z m-1300 13 c0 -4 -21 -17 -47 -30
-88 -42 -212 -132 -260 -186 -36 -42 -49 -52 -60 -44 -19 16 -16 49 5 56 9 3
28 16 42 29 36 33 303 193 312 188 4 -3 8 -9 8 -13z m2940 5 c0 -11 -19 -15
-25 -6 -3 5 1 10 9 10 9 0 16 -2 16 -4z m-3097 -35 c-29 -16 -72 -43 -95 -60
-23 -17 -44 -28 -47 -25 -11 11 73 74 124 93 72 28 78 25 18 -8z m2842 -1 c-6
-9 -9 -9 -16 1 -10 17 0 34 13 21 6 -6 7 -16 3 -22z m43 -7 c0 -14 6 -31 13
-37 8 -6 23 -21 33 -34 29 -34 0 -27 -38 10 -30 28 -33 35 -24 60 12 35 16 35
16 1z m-2689 -24 c19 -34 20 -43 10 -50 -10 -6 -19 2 -31 29 -32 71 -17 86 21
21z m919 -4 c59 -27 116 -65 109 -71 -3 -3 -20 4 -38 14 -19 11 -65 30 -104
42 -84 27 -102 40 -54 40 18 0 58 -11 87 -25z m4097 15 c7 -11 -37 -31 -146
-66 -89 -29 -196 -93 -213 -126 -17 -33 -40 -34 -52 -1 -9 26 -6 30 31 55 40
27 64 30 29 3 -19 -15 -19 -15 1 -8 11 4 35 17 53 29 18 13 54 30 80 40 35 13
194 76 209 83 1 1 5 -3 8 -9z m-5060 -40 c10 -22 16 -42 14 -44 -2 -2 -36 -20
-75 -40 -39 -20 -81 -46 -93 -58 -12 -11 -24 -18 -25 -17 -9 10 -37 71 -34 74
9 9 184 124 189 125 3 0 14 -18 24 -40z m863 6 c31 -13 75 -29 97 -36 22 -7
66 -28 97 -46 31 -19 60 -34 65 -33 13 2 27 -1 41 -10 10 -6 11 -13 1 -34 -15
-33 -24 -34 -44 -3 -23 34 -114 92 -182 115 -132 45 -163 58 -156 64 10 11 20
9 81 -17z m1968 -121 c78 -48 149 -88 159 -89 23 -3 40 -35 27 -48 -7 -7 -40
10 -104 55 -52 36 -142 94 -201 130 -78 47 -103 67 -95 75 9 9 20 5 42 -13 17
-13 95 -63 172 -110z m-2044 102 c0 -31 -16 -87 -25 -87 -32 1 -36 16 -15 58
19 37 39 52 40 29z m161 -67 c73 -24 71 -20 46 -87 l-8 -22 -48 23 c-26 13
-66 29 -88 36 -55 17 -58 22 -45 68 l13 40 31 -18 c17 -10 62 -28 99 -40z
m1670 32 c-2 -42 -3 -43 -19 -28 -9 10 -13 24 -9 37 9 26 30 19 28 -9z m-2506
-17 l22 -35 -21 -11 c-29 -15 -47 4 -30 31 6 11 12 22 12 25 0 10 -154 -83
-268 -162 -93 -64 -136 -77 -112 -33 6 11 17 20 25 20 8 0 31 10 52 22 84 48
264 161 269 169 10 17 29 7 51 -26z m2490 -41 c21 -14 52 -38 68 -53 90 -81
195 -161 212 -161 33 0 56 -24 48 -49 -9 -29 -45 -25 -61 7 -16 32 -163 163
-210 187 -56 29 -115 75 -108 86 7 13 8 12 51 -17z m2533 -10 c0 -8 -8 -14
-17 -14 -10 0 -34 -10 -53 -21 -19 -12 -57 -30 -85 -39 -27 -10 -88 -36 -135
-58 -116 -55 -130 -59 -130 -32 0 11 6 22 13 24 91 24 320 114 364 143 13 9
20 20 16 27 -4 6 1 5 10 -3 9 -7 17 -20 17 -27z m-4384 2 c28 -20 293 -126
314 -126 21 0 44 -25 36 -39 -8 -12 -18 -9 -121 39 -44 20 -91 41 -105 45 -14
4 -51 21 -82 36 -54 27 -106 41 -63 17 11 -6 21 -12 23 -13 1 -1 -3 -14 -9
-29 -10 -20 -17 -25 -33 -20 -12 4 -22 7 -23 9 -5 4 29 95 36 95 3 0 16 -6 27
-14z m1934 0 c-4 -4 -16 -4 -26 2 -16 9 -14 10 8 9 15 -1 23 -6 18 -11z
m-2645 -39 c-16 -12 -54 -41 -83 -65 -52 -42 -54 -43 -73 -26 -19 17 -19 18
33 48 29 17 71 43 93 58 27 19 42 25 50 17 7 -7 1 -17 -20 -32z m112 24 c13
-20 8 -31 -13 -31 -43 0 -268 -173 -286 -220 -8 -21 -38 -34 -51 -21 -19 19
-2 46 41 59 23 8 42 20 42 28 0 8 6 14 13 14 6 0 62 43 122 95 61 51 112 94
115 94 3 1 11 -8 17 -18z m44 -74 c9 -16 5 -15 -20 4 -22 16 -27 25 -19 30 12
8 18 3 39 -34z m2409 17 c0 -2 -9 0 -20 6 -11 6 -20 13 -20 16 0 2 9 0 20 -6
11 -6 20 -13 20 -16z m-1802 -12 c15 -11 52 -27 82 -37 67 -23 72 -26 60 -45
-7 -12 -20 -9 -82 19 -40 18 -83 36 -95 38 -19 4 -21 9 -12 24 12 23 15 23 47
1z m1740 -28 c11 -8 12 -13 3 -18 -7 -4 -19 2 -30 16 -14 16 -16 25 -8 30 7 4
14 2 16 -5 2 -7 11 -17 19 -23z m842 17 c0 -5 -11 -37 -24 -72 -26 -71 -28
-72 -310 -274 -207 -148 -272 -172 -441 -162 -119 7 -204 41 -286 115 -107 98
-139 214 -69 252 21 11 21 10 15 -33 -17 -111 97 -229 260 -272 86 -22 139
-19 240 15 50 16 100 30 112 30 12 0 51 16 87 35 36 19 66 32 67 27 1 -16 18
35 18 58 2 39 68 191 97 221 33 34 63 47 139 58 83 12 95 12 95 2z m-2640 -32
c30 -17 46 -27 35 -24 -11 4 -41 11 -67 17 -32 8 -45 15 -41 25 7 17 9 17 73
-18z m1758 -23 c-4 -25 -27 -46 -45 -39 -18 7 -17 23 1 23 20 0 31 21 16 30
-7 4 -9 13 -5 19 11 18 36 -8 33 -33z m2670 32 c-3 -7 -30 -20 -62 -29 -63
-19 -64 -16 -8 17 41 25 76 31 70 12z m-4488 -25 c-1 -11 -26 -43 -33 -43 -4
0 -1 11 5 25 10 23 28 35 28 18z m1728 -25 c7 -7 12 -23 12 -37 0 -19 3 -22 9
-12 5 7 14 10 21 6 9 -6 9 -9 -1 -16 -10 -6 -6 -9 14 -9 20 0 30 -7 37 -25 5
-14 17 -25 28 -25 24 0 82 -29 82 -40 0 -5 20 -19 45 -31 45 -23 46 -24 43
-69 -3 -38 -6 -45 -23 -42 -42 6 -61 10 -88 21 -40 16 -58 13 -22 -4 37 -16
29 -19 -13 -4 -18 6 -29 15 -26 20 3 5 0 9 -7 9 -7 0 -27 11 -45 25 -42 32
-58 33 -19 0 17 -13 26 -24 20 -25 -10 0 -40 23 -100 77 -16 15 -32 38 -35 52
-3 14 -13 27 -22 29 -15 3 -17 -2 -11 -29 4 -24 3 -30 -6 -25 -7 5 -11 26 -10
52 3 43 11 55 24 34 8 -13 55 -13 55 -1 0 6 -5 13 -12 17 -7 4 -8 3 -4 -4 4
-7 0 -12 -10 -12 -16 0 -16 1 1 20 22 25 32 25 39 3 3 -10 3 -1 0 20 -5 38 3
46 24 25z m-1454 -52 c49 -20 91 -38 93 -40 9 -8 -18 -46 -32 -46 -8 0 -20 9
-28 20 -8 11 -45 41 -83 66 -38 25 -62 43 -54 41 8 -3 55 -22 104 -41z m4021
24 c-3 -5 -32 -26 -65 -46 -33 -20 -66 -47 -75 -60 -20 -31 -49 -31 -63 0 -12
26 -24 18 133 85 83 35 78 33 70 21z m-1604 -127 c-8 -15 -10 -15 -11 -2 0 17
10 32 18 25 2 -3 -1 -13 -7 -23z m1913 -38 c10 -7 15 -18 11 -24 -3 -6 1 -11
9 -11 9 0 16 -7 16 -15 0 -8 -6 -12 -14 -9 -7 3 -16 -2 -19 -10 -4 -11 -1 -13
11 -9 15 6 15 5 3 -10 -7 -10 -19 -17 -25 -16 -23 3 -37 -1 -32 -10 3 -5 -2
-8 -12 -7 -10 0 -16 -5 -14 -13 2 -8 -3 -11 -11 -8 -8 3 -23 0 -33 -8 -20 -13
-99 -31 -124 -27 -8 1 -33 5 -54 8 -22 3 -48 10 -58 15 -21 11 -15 29 10 29 9
0 30 11 46 25 18 15 36 23 47 20 10 -4 30 1 44 11 16 11 35 14 55 11 16 -4 32
-2 35 3 4 6 -1 7 -11 3 -12 -4 -15 -3 -10 5 4 7 16 12 27 12 12 0 19 5 17 12
-5 14 27 36 52 37 8 0 23 -6 34 -14z m65 -89 c-9 -8 -10 -5 -5 14 3 14 6 32 7
40 1 8 4 2 6 -14 3 -16 -1 -34 -8 -40z m71 5 c0 -39 -50 -120 -95 -154 -82
-63 -142 -79 -275 -75 -106 3 -121 6 -181 35 -62 31 -191 131 -212 164 -6 9
-7 29 -3 45 l8 29 14 -26 c19 -37 136 -121 230 -166 70 -34 88 -38 154 -38
115 0 183 20 241 73 59 53 79 88 79 139 l1 38 19 -24 c11 -13 20 -31 20 -40z
m-3220 35 c0 -14 -27 -42 -34 -35 -2 2 0 14 5 27 9 24 29 30 29 8z m2301 -58
c51 -60 50 -61 -14 -8 -32 28 -61 70 -48 70 5 0 33 -28 62 -62z m-1401 17 c-7
-8 -17 -15 -23 -15 -6 0 -2 7 9 15 25 19 30 19 14 0z m2347 -132 c-3 -10 -5
-4 -5 12 0 17 2 24 5 18 2 -7 2 -21 0 -30z m-2471 2 c18 -15 17 -17 -30 -60
-53 -50 -178 -115 -219 -115 -23 0 -77 43 -77 61 0 5 116 42 205 66 11 3 35
19 53 34 38 33 41 34 68 14z m-3323 -30 c42 -29 46 -35 17 -28 -11 3 -20 9
-20 14 0 5 -12 15 -27 23 -16 8 -23 15 -18 16 6 0 27 -11 48 -25z m-53 5 c8
-5 11 -12 8 -16 -4 -3 -14 1 -23 10 -18 17 -9 21 15 6z m140 -75 c7 -9 5 -16
-7 -26 -16 -13 -17 -12 -5 3 12 15 11 18 -12 24 -14 3 -26 10 -26 14 0 11 37
0 50 -15z m27 -30 c0 -8 -4 -12 -9 -9 -5 3 -6 10 -3 15 9 13 12 11 12 -6z
m5531 -3 c6 -20 -60 -79 -103 -91 -58 -16 -186 -33 -226 -29 -26 2 -33 7 -31
21 2 9 -3 17 -10 17 -12 0 -70 61 -64 67 2 2 63 6 137 8 74 3 159 9 189 14 70
11 102 9 108 -7z m-5483 -21 c3 -5 2 -12 -3 -15 -5 -3 -9 1 -9 9 0 17 3 19 12
6z m60 -38 c35 -17 41 -33 14 -41 -12 -3 -12 -2 0 6 11 8 10 12 -8 21 -12 7
-27 9 -33 5 -7 -4 -8 -3 -4 4 10 16 -16 15 -34 0 -12 -11 -12 -10 -1 5 17 21
22 21 66 0z m150 -43 c14 -6 6 -7 -25 -4 -33 4 -41 3 -30 -5 9 -7 10 -11 3
-11 -15 0 -25 15 -16 24 9 8 44 6 68 -4z"/>
<path d="M3454 4521 c-38 -23 -102 -97 -149 -171 -58 -92 -68 -119 -63 -182
10 -138 178 -278 285 -237 15 5 45 22 65 36 100 68 140 315 74 458 -45 99
-138 141 -212 96z m115 -27 c59 -35 91 -116 91 -234 0 -142 -48 -257 -123
-294 -56 -27 -115 -8 -183 58 -93 92 -108 193 -40 272 32 38 36 44 36 63 0 18
82 112 113 132 39 23 70 24 106 3z"/>
<path d="M3382 4236 c-34 -5 -61 -14 -59 -20 3 -10 9 -13 57 -35 14 -7 38 -19
53 -27 28 -16 87 -13 116 5 21 13 4 47 -32 64 -49 23 -67 24 -135 13z"/>
<path d="M5236 3915 c-20 -19 -36 -38 -36 -42 0 -4 5 -2 12 5 7 7 20 12 30 12
12 0 15 5 11 17 -5 12 -3 14 8 8 8 -4 11 -5 7 0 -4 4 -3 14 3 22 22 26 0 13
-35 -22z"/>
<path d="M2620 4710 c0 -6 7 -10 15 -10 8 0 15 2 15 4 0 2 -7 6 -15 10 -8 3
-15 1 -15 -4z"/>
<path d="M4190 4754 c0 -39 -5 -51 -34 -80 -29 -29 -41 -34 -79 -34 -33 0 -53
6 -74 24 l-29 24 -21 -22 c-33 -34 -62 -172 -44 -205 6 -9 5 -23 -1 -34 -6
-13 -6 -17 0 -13 12 7 25 -21 16 -35 -3 -5 0 -8 8 -7 8 2 12 -6 10 -22 -1 -17
1 -21 6 -12 7 10 13 7 25 -12 23 -34 21 -37 -9 -26 -31 12 -34 12 -34 1 0 -5
9 -11 21 -14 18 -5 19 -8 9 -27 -17 -31 2 -50 32 -31 17 11 22 11 29 0 6 -11
15 -11 36 -3 28 10 29 10 25 -23 -4 -28 -1 -33 16 -33 13 0 24 10 31 30 14 41
25 38 18 -5 -5 -32 -3 -35 18 -35 12 0 25 7 29 15 9 23 21 18 33 -15 17 -44
50 -41 59 5 7 40 7 40 39 19 27 -18 45 -12 45 16 0 17 5 19 32 13 28 -5 31 -4
24 13 -5 10 -12 32 -17 48 -8 26 -7 27 9 13 21 -19 72 -33 72 -20 0 18 -48 55
-61 48 -8 -6 -10 -4 -4 6 17 29 28 40 34 31 10 -14 92 -43 103 -36 6 4 -8 23
-33 45 -30 26 -39 38 -27 39 9 0 20 -4 23 -10 3 -5 23 -10 43 -10 l37 1 -48
44 c-45 41 -49 51 -23 46 6 -1 21 1 35 4 25 6 25 7 7 21 -11 8 -29 14 -40 14
-19 1 -18 3 7 21 35 27 34 40 -2 37 -16 -1 -28 -5 -25 -9 2 -4 1 -15 -3 -25
-8 -20 -45 103 -38 124 3 7 1 11 -4 8 -5 -3 -17 6 -27 21 -50 70 -127 113
-201 113 l-53 0 0 -46z"/>
<path d="M4380 4780 c-9 -6 -10 -10 -3 -10 6 0 15 5 18 10 8 12 4 12 -15 0z"/>
<path d="M4460 4736 c0 -2 7 -6 15 -10 8 -3 15 -1 15 4 0 6 -7 10 -15 10 -8 0
-15 -2 -15 -4z"/>
<path d="M4550 4670 c-9 -6 -10 -10 -3 -10 6 0 15 5 18 10 8 12 4 12 -15 0z"/>
<path d="M4520 4619 c0 -5 5 -7 10 -4 6 3 10 8 10 11 0 2 -4 4 -10 4 -5 0 -10
-5 -10 -11z"/>
<path d="M3868 4533 c7 -3 16 -2 19 1 4 3 -2 6 -13 5 -11 0 -14 -3 -6 -6z"/>
<path d="M3865 4481 c-6 -11 13 -26 22 -17 4 3 0 6 -8 6 -11 0 -11 2 1 10 9 6
10 10 3 10 -6 0 -14 -4 -18 -9z"/>
<path d="M8145 3944 c1 -15 10 -31 20 -37 16 -8 17 -7 10 9 -4 10 -10 27 -12
37 -8 26 -19 20 -18 -9z"/>
<path d="M5770 3931 c8 -6 11 -11 6 -11 -5 0 -2 -7 5 -16 12 -15 11 -16 -7
-10 -17 5 -23 2 -26 -16 -3 -13 -9 -32 -12 -43 -5 -14 -3 -13 7 4 8 13 16 19
18 13 2 -6 24 8 48 30 39 37 41 40 16 34 -17 -4 -24 -3 -20 4 3 5 2 10 -4 10
-5 0 -18 3 -28 6 -15 5 -15 4 -3 -5z"/>
<path d="M8190 3890 c0 -5 5 -10 11 -10 5 0 7 5 4 10 -3 6 -8 10 -11 10 -2 0
-4 -4 -4 -10z"/>
<path d="M5537 3114 c-8 -14 26 -137 36 -128 12 13 7 58 -11 99 -10 21 -21 35
-25 29z"/>
<path d="M5670 2695 c0 -5 5 -17 10 -25 5 -8 10 -10 10 -5 0 6 -5 17 -10 25
-5 8 -10 11 -10 5z"/>
<path d="M5683 2625 c3 -11 9 -32 13 -47 3 -16 10 -28 14 -28 4 0 1 19 -7 42
-15 44 -30 69 -20 33z"/>
<path d="M2418 3829 c-3 -7 -6 -18 -6 -23 0 -5 -4 -12 -9 -15 -4 -3 -15 -15
-23 -25 -14 -18 -14 -19 5 -8 25 12 49 55 43 73 -3 10 -6 10 -10 -2z"/>
<path d="M2680 2240 c0 -40 49 -162 62 -154 14 9 2 77 -22 122 -11 20 -20 42
-20 49 0 7 -4 13 -10 13 -5 0 -10 -13 -10 -30z"/>
<path d="M2858 2173 c2 -48 9 -96 15 -108 10 -17 12 -12 19 40 6 45 4 72 -8
108 -9 26 -19 47 -23 47 -3 0 -5 -39 -3 -87z"/>
<path d="M3385 2195 c-8 -75 3 -221 15 -209 23 23 23 274 0 274 -5 0 -12 -29
-15 -65z"/>
<path d="M2520 2223 c0 -12 5 -34 11 -50 6 -15 16 -50 23 -77 14 -62 32 -70
34 -15 2 41 -21 106 -52 144 -15 20 -15 20 -16 -2z"/>
<path d="M3064 2195 c-7 -53 0 -104 21 -131 13 -17 14 -12 15 56 0 79 -7 120
-21 120 -4 0 -11 -20 -15 -45z"/>
<path d="M3206 2172 c-7 -70 -1 -138 14 -147 21 -13 27 172 6 200 -12 16 -14
10 -20 -53z"/>
<path d="M3611 2175 c-17 -56 -25 -140 -16 -162 6 -17 8 -16 15 4 18 45 30
139 21 168 l-8 30 -12 -40z"/>
<path d="M3837 2182 c-12 -18 -27 -107 -32 -192 l-5 -75 26 75 c19 56 24 90
22 140 -2 38 -6 60 -11 52z"/>
<path d="M4027 2183 c-11 -18 -47 -206 -47 -242 0 -117 47 25 57 172 5 70 2
90 -10 70z"/>
<path d="M4195 2125 c-29 -71 -38 -98 -56 -170 -26 -108 -24 -131 6 -74 29 56
67 202 62 238 -3 24 -4 24 -12 6z"/>
<path d="M4456 2067 c-33 -75 -77 -200 -73 -210 10 -32 107 184 107 239 0 27
-15 14 -34 -29z"/>
<path d="M4349 2078 c-40 -70 -90 -236 -87 -282 3 -38 6 -33 45 79 58 165 80
273 42 203z"/>
<path d="M4400 1296 c-78 -17 -117 -41 -139 -84 -35 -70 -52 -199 -31 -247 7
-15 9 -9 9 26 1 25 10 81 21 125 24 97 59 135 147 160 102 29 97 43 -7 20z"/>
<path d="M8567 3369 c8 -94 -13 -302 -52 -524 -37 -207 -104 -429 -175 -583
-22 -45 -34 -80 -28 -76 20 13 116 229 161 364 90 267 143 746 96 865 -4 11
-5 -10 -2 -46z"/>
<path d="M8406 3257 c-7 -45 -1 -77 15 -77 5 0 9 27 9 60 0 70 -15 80 -24 17z"/>
<path d="M8349 2523 c-13 -16 -12 -17 4 -4 16 13 21 21 13 21 -2 0 -10 -8 -17
-17z"/>
<path d="M5575 3325 c16 -13 31 -22 34 -20 5 6 -41 44 -54 44 -5 0 3 -11 20
-24z"/>
<path d="M5511 3323 c18 -23 38 -36 69 -45 22 -6 20 -2 -14 28 -43 37 -80 49
-55 17z"/>
<path d="M1936 3168 c-17 -178 35 -534 111 -752 37 -107 141 -332 149 -323 3
3 -4 24 -16 47 -118 231 -213 633 -229 965 l-7 150 -8 -87z"/>
<path d="M4747 3143 c-10 -10 -8 -23 4 -23 5 0 8 4 4 9 -3 5 5 12 17 14 21 4
21 4 2 6 -11 0 -24 -2 -27 -6z"/>
<path d="M5828 2248 c12 -6 22 -15 22 -20 0 -5 -4 -7 -9 -4 -5 3 -11 0 -14 -7
-3 -8 1 -14 9 -14 8 0 14 4 14 8 0 4 8 9 18 11 13 3 10 8 -15 21 -18 9 -36 17
-40 16 -4 0 2 -5 15 -11z"/>
<path d="M5490 1090 c6 -11 16 -20 22 -20 6 0 3 9 -7 20 -10 11 -20 20 -22 20
-2 0 1 -9 7 -20z"/>
<path d="M5430 1067 c0 -4 16 -23 35 -43 19 -19 35 -31 35 -26 0 4 -16 23 -35
42 -19 19 -35 31 -35 27z"/>
<path d="M5570 1029 c-25 -7 -25 -7 -2 -8 13 -1 21 -5 17 -10 -5 -10 63 -37
71 -28 3 3 -9 8 -26 12 -21 5 -30 11 -26 21 7 18 -4 22 -34 13z"/>
<path d="M5628 1013 c7 -3 16 -2 19 1 4 3 -2 6 -13 5 -11 0 -14 -3 -6 -6z"/>
<path d="M5665 1000 c3 -5 8 -10 11 -10 2 0 4 5 4 10 0 6 -5 10 -11 10 -5 0
-7 -4 -4 -10z"/>
<path d="M5692 948 c7 -15 15 -23 17 -17 2 6 -4 18 -13 27 -15 15 -15 15 -4
-10z"/>
<path d="M5725 950 c-3 -5 -1 -10 4 -10 6 0 11 5 11 10 0 6 -2 10 -4 10 -3 0
-8 -4 -11 -10z"/>
<path d="M8294 973 c-3 -10 -19 -28 -37 -40 -17 -13 -26 -23 -18 -23 7 0 28
15 46 34 17 19 43 36 56 39 19 3 17 5 -9 6 -25 1 -35 -4 -38 -16z"/>
<path d="M8195 900 c-4 -6 -16 -8 -28 -5 -19 5 -20 5 -5 -5 16 -10 58 1 58 15
0 9 -19 5 -25 -5z"/>
<path d="M8083 859 c-2 -22 12 -25 20 -5 3 8 0 16 -7 19 -6 3 -13 -4 -13 -14z"/>
<path d="M8198 573 c7 -3 16 -2 19 1 4 3 -2 6 -13 5 -11 0 -14 -3 -6 -6z"/>
<path d="M8133 563 c9 -2 25 -2 35 0 9 3 1 5 -18 5 -19 0 -27 -2 -17 -5z"/>
<path d="M6903 7801 c-145 -37 -258 -160 -270 -291 -5 -53 -4 -58 22 -78 86
-68 280 30 245 123 -14 37 -57 33 -106 -10 -38 -33 -30 -50 10 -20 45 34 82 5
52 -40 -19 -28 -56 -49 -104 -58 -27 -6 -38 -2 -58 18 -69 69 16 244 155 314
128 66 249 10 280 -129 25 -108 2 -293 -48 -394 -41 -82 -83 -131 -145 -166
-63 -37 -81 -39 -65 -9 10 19 5 18 -45 -10 -39 -23 -92 -40 -173 -57 -65 -13
-120 -24 -122 -24 -3 0 13 19 34 41 l40 42 -44 -24 c-23 -13 -59 -38 -80 -55
-30 -26 -106 -57 -221 -91 -8 -3 -4 4 10 16 14 11 19 21 12 21 -18 0 -110 -47
-149 -76 -52 -39 -142 -57 -263 -52 -93 4 -115 8 -175 36 -37 18 -75 30 -85
27 -10 -3 -36 14 -73 51 -59 59 -87 66 -48 14 26 -36 13 -39 -26 -6 -23 19
-168 96 -180 96 -3 0 -1 -5 3 -12 4 -6 3 -8 -2 -5 -6 3 -34 15 -64 27 -42 17
-51 18 -40 5 25 -30 96 -72 144 -84 49 -12 290 -109 337 -136 15 -8 73 -22
130 -30 121 -19 252 -12 314 15 167 74 420 148 650 192 270 51 863 16 1013
-61 34 -17 59 -19 277 -17 232 1 242 2 289 25 26 13 56 24 65 24 41 0 369 206
357 225 -2 4 16 30 40 57 l44 50 -15 -37 c-21 -51 -7 -47 30 7 36 54 104 107
165 129 l45 17 -52 -4 c-37 -3 -65 -12 -94 -33 -23 -16 -56 -39 -73 -50 -17
-12 -56 -47 -86 -78 -54 -57 -150 -133 -150 -119 0 4 10 17 22 30 66 70 -55
-21 -162 -121 -31 -30 -70 -56 -84 -56 -2 0 14 27 36 61 22 33 38 62 35 65 -2
3 -35 -29 -73 -70 -61 -68 -74 -77 -121 -87 -41 -10 -68 -10 -117 -1 -82 16
-96 15 -66 -4 59 -36 -275 9 -352 47 -43 22 -52 23 -42 8 4 -8 -3 -9 -22 -5
-16 3 -46 8 -66 12 -21 3 -38 9 -38 13 0 20 -123 31 -364 31 l-258 0 50 40
c146 115 208 312 171 540 -13 82 -41 132 -90 159 -43 24 -118 34 -166 22z"/>
<path d="M9460 7510 c-11 -11 -20 -31 -20 -45 0 -30 32 -65 60 -65 25 0 70 42
70 65 0 23 -45 65 -70 65 -11 0 -29 -9 -40 -20z"/>
<path d="M8858 7215 c-4 -4 20 -32 52 -62 72 -66 96 -103 127 -197 l23 -71 -5
62 c-2 35 -11 78 -19 97 -20 49 -89 121 -139 145 -54 27 -34 26 81 -3 95 -25
127 -40 175 -84 38 -36 34 -13 -8 35 -19 22 -53 48 -76 57 -45 18 -199 33
-211 21z"/>
<path d="M8844 7175 c10 -16 27 -39 37 -50 28 -31 56 -103 71 -180 l13 -70 3
72 c4 97 -22 158 -92 216 -47 39 -50 40 -32 12z"/>
<path d="M5035 7119 c4 -8 15 -22 23 -31 18 -22 4 -23 -22 -3 -39 30 -151 12
-185 -28 -12 -16 -11 -16 22 -2 72 30 156 15 216 -39 l24 -21 -12 23 c-10 19
-2 16 39 -17 67 -53 80 -52 35 3 -48 59 -161 151 -140 115z"/>
<path d="M2142 7031 c-9 -5 9 -10 47 -14 67 -6 110 -30 138 -78 14 -23 19 -26
23 -14 4 12 12 3 28 -29 22 -44 39 -63 47 -54 3 2 -11 36 -29 74 -56 113 -95
159 -66 77 l10 -28 -22 26 c-13 15 -33 32 -45 38 -25 13 -112 15 -131 2z"/>
<path d="M4880 7019 c-47 -14 -96 -53 -116 -92 l-17 -32 37 33 c66 58 91 66
203 67 87 0 100 2 88 14 -17 18 -147 24 -195 10z"/>
<path d="M2084 6974 c-23 -8 -52 -27 -65 -41 l-24 -27 27 17 c51 32 111 39
195 21 43 -9 87 -21 98 -27 18 -9 19 -8 7 6 -17 20 -102 52 -157 60 -24 4 -56
0 -81 -9z"/>
<path d="M5020 6944 c-122 -32 -191 -120 -189 -243 l1 -66 14 63 c25 115 61
166 153 216 64 34 88 30 32 -7 -22 -15 -50 -45 -61 -67 -25 -50 -36 -121 -21
-146 9 -16 10 -14 11 16 0 50 42 132 96 190 26 28 39 47 29 44 -13 -5 -16 -4
-11 4 4 7 6 12 4 11 -2 0 -28 -7 -58 -15z"/>
<path d="M7783 6311 c-184 -50 -316 -167 -413 -366 -77 -158 -94 -237 -94
-440 0 -143 3 -184 22 -258 49 -198 118 -323 247 -452 93 -93 161 -139 263
-181 117 -47 180 -59 317 -59 117 0 139 3 219 29 240 79 404 271 473 553 11
46 16 115 17 213 0 121 -3 159 -22 230 -80 295 -264 525 -527 657 -166 84
-360 112 -502 74z m237 -15 c182 -33 406 -156 525 -288 89 -100 205 -305 205
-365 0 -11 6 -33 14 -49 24 -48 39 -189 33 -298 -18 -308 -171 -561 -402 -667
-107 -48 -274 -71 -370 -50 l-30 7 47 23 c113 57 213 160 267 274 40 86 55
158 55 258 -3 310 -254 560 -563 559 -147 -1 -316 -69 -426 -172 l-65 -61 6
89 c17 266 89 451 226 591 67 67 142 113 228 137 100 28 149 30 250 12z m-140
-710 c101 -19 179 -50 224 -89 l36 -32 -15 -49 c-20 -65 -20 -90 1 -82 12 5
15 2 11 -11 -2 -10 -6 -24 -8 -32 -2 -8 6 -17 19 -20 31 -8 32 -24 5 -36 -24
-10 -32 -35 -12 -35 17 0 79 -31 79 -40 0 -11 -46 -29 -66 -26 -21 4 -44 -11
-44 -28 0 -6 4 -5 9 3 10 16 64 7 81 -14 15 -18 3 -23 -52 -23 -26 0 -52 -3
-58 -7 -7 -5 -8 2 -3 22 4 15 8 57 7 93 -1 182 -167 306 -369 276 -46 -7 -46
-8 -39 -39 10 -42 9 -72 -5 -105 -25 -59 -104 -87 -162 -58 -17 9 -33 16 -34
16 -2 0 -8 -20 -14 -44 -35 -141 23 -263 164 -342 44 -25 60 -28 140 -29 86 0
94 2 149 35 32 19 71 47 87 62 15 16 29 25 32 20 2 -4 2 -1 0 6 -5 22 8 36 19
21 7 -10 8 -9 4 6 -3 11 -2 25 2 31 10 15 42 14 42 -2 0 -7 9 -16 20 -19 28
-9 15 -25 -19 -25 -39 0 -44 -10 -20 -37 l22 -23 -30 -12 c-16 -7 -28 -18 -26
-24 2 -6 -4 -17 -12 -24 -13 -11 -21 -11 -36 -2 -28 18 -29 16 -29 -34 l0 -46
-32 6 c-18 4 -34 11 -36 16 -5 15 -21 12 -39 -6 -10 -10 -25 -13 -44 -9 -18 4
-29 2 -29 -4 0 -15 -20 -14 -39 3 -23 19 -98 27 -111 12 -5 -7 -7 -15 -5 -18
3 -3 -5 -4 -17 -3 -30 3 -30 3 -22 17 14 23 10 57 -7 61 -13 4 -16 0 -12 -12
5 -13 3 -13 -15 3 -12 11 -22 16 -22 12 0 -4 -8 -2 -18 3 -27 15 -75 88 -69
105 4 9 1 13 -6 10 -28 -10 -117 219 -117 300 0 34 91 167 141 207 55 43 129
77 205 94 77 17 104 17 194 1z m-450 -51 c-13 -14 -28 -25 -34 -25 -6 1 3 12
19 25 39 32 45 32 15 0z m818 -700 c-6 -14 -13 -23 -15 -21 -5 5 15 46 22 46
3 0 -1 -11 -7 -25z m-577 -92 c13 -16 12 -17 -3 -4 -10 7 -18 15 -18 17 0 8 8
3 21 -13z m435 -68 c-11 -8 -25 -15 -30 -15 -6 1 0 7 14 15 32 19 40 18 16 0z"/>
<path d="M7976 5523 c-6 -14 -5 -15 5 -6 7 7 10 15 7 18 -3 3 -9 -2 -12 -12z"/>
<path d="M8111 5214 c0 -11 3 -14 6 -6 3 7 2 16 -1 19 -3 4 -6 -2 -5 -13z"/>
<path d="M7425 5119 c-4 -6 -5 -12 -2 -15 2 -3 7 2 10 11 7 17 1 20 -8 4z"/>
<path d="M7480 4946 c0 -2 8 -10 18 -17 15 -13 16 -12 3 4 -13 16 -21 21 -21
13z"/>
<path d="M7650 4840 c-18 -12 -2 -12 25 0 13 6 15 9 5 9 -8 0 -22 -4 -30 -9z"/>
<path d="M7878 4843 c7 -3 16 -2 19 1 4 3 -2 6 -13 5 -11 0 -14 -3 -6 -6z"/>
<path d="M6038 6145 c-134 -33 -287 -124 -407 -243 -127 -125 -204 -260 -257
-447 -26 -90 -28 -116 -29 -260 0 -137 4 -172 23 -245 116 -424 452 -654 840
-574 257 53 497 247 605 491 57 129 71 202 71 393 0 157 -3 185 -26 271 -85
314 -276 546 -507 613 -67 20 -233 20 -313 1z m287 -22 c250 -76 437 -329 511
-690 3 -18 -5 -15 -64 24 -110 75 -154 91 -283 104 -88 9 -125 9 -149 0 -18
-6 -43 -11 -55 -11 -33 0 -174 -73 -237 -124 -70 -56 -140 -152 -175 -242 -24
-61 -27 -83 -27 -184 0 -99 3 -125 26 -187 63 -174 194 -308 362 -369 l61 -22
-45 -12 c-110 -30 -260 -30 -365 1 -169 49 -342 210 -424 394 -54 121 -73 213
-78 376 -5 146 -4 163 21 260 49 191 142 349 273 465 164 146 297 212 465 233
73 9 113 5 183 -16z m219 -674 c89 -15 151 -48 152 -79 3 -72 1 -69 39 -63 31
5 35 3 35 -16 0 -22 -43 -116 -57 -124 -5 -3 -19 10 -33 29 -16 22 -51 47 -96
69 -58 29 -82 35 -130 34 -93 -2 -105 -8 -121 -62 -19 -65 -72 -101 -135 -92
-43 6 -44 6 -62 -31 -9 -21 -20 -67 -23 -103 -7 -96 20 -161 96 -235 33 -31
65 -56 72 -56 7 0 10 -3 7 -6 -4 -3 -15 -1 -27 5 -13 7 -22 8 -26 1 -3 -5 -13
-10 -21 -10 -9 0 -12 5 -8 12 5 7 2 9 -8 5 -9 -3 -44 -11 -78 -18 l-63 -12
-27 34 c-34 40 -79 128 -92 178 -26 95 -19 175 23 258 10 19 15 41 13 48 -13
33 84 152 114 140 7 -3 10 0 7 5 -8 12 61 55 105 66 19 4 40 9 45 11 86 25
201 30 299 12z m201 -87 c-3 -3 -11 0 -18 7 -9 10 -8 11 6 5 10 -3 15 -9 12
-12z m2 -284 c-3 -8 -6 -5 -6 6 -1 11 2 17 5 13 3 -3 4 -12 1 -19z m53 -141
c-26 -76 -36 -95 -50 -94 -15 1 -16 5 -9 19 6 10 14 16 19 13 9 -6 42 88 57
161 5 28 8 33 11 17 2 -11 -11 -64 -28 -116z m-70 -64 c-11 -17 -11 -17 -6 0
3 10 7 26 7 35 1 15 2 15 6 0 2 -10 -1 -25 -7 -35z m-105 -141 c-3 -3 -11 0
-18 7 -9 10 -8 11 6 5 10 -3 15 -9 12 -12z m-147 -49 c-10 -2 -26 -2 -35 0
-10 3 -2 5 17 5 19 0 27 -2 18 -5z m-412 -95 l29 -33 -32 29 c-31 28 -38 36
-30 36 2 0 16 -15 33 -32z m277 -135 c-7 -2 -19 -2 -25 0 -7 3 -2 5 12 5 14 0
19 -2 13 -5z"/>
<path d="M6208 5403 c7 -3 16 -2 19 1 4 3 -2 6 -13 5 -11 0 -14 -3 -6 -6z"/>
<path d="M6115 5369 c-4 -6 -5 -12 -2 -15 2 -3 7 2 10 11 7 17 1 20 -8 4z"/>
<path d="M6070 5301 c0 -6 5 -13 10 -16 6 -3 10 1 10 9 0 9 -4 16 -10 16 -5 0
-10 -4 -10 -9z"/>
<path d="M7076 4960 c-71 -22 -125 -112 -166 -277 -33 -135 -24 -188 46 -257
80 -80 207 -125 284 -101 81 26 140 119 140 222 0 193 -94 382 -205 412 -46
13 -59 13 -99 1z m97 -44 c68 -28 123 -123 153 -264 27 -129 4 -235 -61 -278
-104 -68 -298 28 -335 167 -9 31 -7 49 10 100 12 34 19 63 17 66 -3 2 2 32 9
66 29 124 114 182 207 143z"/>
<path d="M7078 4636 c-15 -8 -38 -22 -50 -30 -12 -9 -30 -16 -40 -16 -26 0
-22 -19 5 -24 115 -24 171 -24 204 1 16 11 29 26 31 34 6 34 -104 60 -150 35z"/>
<path d="M9062 4939 c-2 -19 2 -28 8 -24 12 7 14 55 2 55 -4 0 -9 -14 -10 -31z"/>
<path d="M9037 4890 c-3 -11 -1 -20 4 -20 5 0 9 9 9 20 0 11 -2 20 -4 20 -2 0
-6 -9 -9 -20z"/>
<path d="M881 4806 c-53 -18 -87 -48 -101 -93 -30 -89 49 -165 135 -129 33 14
57 57 41 73 -3 4 -6 -1 -6 -10 0 -27 -37 -57 -69 -57 -43 0 -84 39 -84 78 0
66 48 113 124 120 165 16 209 -159 95 -374 -37 -70 -27 -76 34 -20 100 90 274
141 349 102 46 -24 56 -58 32 -111 -31 -70 -127 -108 -164 -67 -23 25 -21 78
3 102 24 24 34 25 54 4 9 -8 16 -11 16 -6 0 19 -30 34 -55 28 -52 -13 -69
-103 -28 -148 22 -25 79 -23 128 5 155 88 79 265 -99 229 -75 -15 -178 -67
-232 -117 -25 -23 -43 -39 -41 -36 2 3 21 42 42 86 37 74 40 86 40 167 0 72
-3 91 -21 114 -47 64 -114 85 -193 60z"/>
<path d="M464 4716 c-73 -32 -99 -108 -99 -286 0 -122 2 -139 23 -178 31 -59
92 -95 205 -122 130 -31 130 -31 46 -46 -111 -19 -185 -50 -230 -95 -42 -42
-55 -75 -45 -114 8 -33 36 -46 100 -46 71 -1 133 27 197 90 29 28 53 51 55 51
2 0 -5 -15 -16 -32 -27 -45 -26 -84 4 -103 33 -22 69 -4 96 49 14 28 19 33 16
16 -23 -126 -14 -180 41 -241 31 -34 41 -40 72 -37 49 4 76 51 75 133 0 62
-11 94 -62 180 l-30 51 72 -71 c87 -86 161 -125 239 -125 44 0 64 6 115 38
117 70 222 191 222 254 0 38 -36 84 -83 107 -56 27 -162 37 -242 22 -69 -13
-207 -52 -202 -58 2 -2 42 6 88 17 181 43 306 35 378 -26 41 -34 41 -75 1
-135 -33 -51 -100 -108 -132 -114 -11 -3 -23 -7 -27 -11 -3 -4 3 -4 14 -1 l20
7 -20 -16 c-27 -22 -116 -64 -136 -64 -29 0 -119 33 -113 41 3 5 -2 6 -10 3
-9 -3 -16 -1 -16 4 0 6 -9 14 -20 17 -12 4 -17 11 -14 18 4 7 4 9 -1 5 -11
-11 -47 11 -39 24 4 6 3 8 -4 4 -5 -3 -35 22 -66 56 -31 34 -56 56 -56 50 0
-6 23 -57 50 -113 53 -108 60 -148 40 -221 -10 -34 -50 -73 -50 -49 0 5 8 12
18 14 15 4 15 5 0 6 -9 0 -20 -4 -23 -10 -11 -17 -73 55 -85 101 -9 34 -8 63
5 144 12 79 35 166 50 193 0 1 46 -16 100 -38 198 -79 292 -107 332 -98 74 16
98 96 43 143 -46 38 -106 43 -236 18 -119 -24 -190 -27 -214 -12 -11 7 -8 10
16 10 40 0 88 21 92 39 12 55 11 69 -8 99 -28 45 -82 68 -122 51 -15 -6 -32
-18 -37 -27 -6 -10 -12 6 -20 51 -25 145 -71 247 -144 325 -63 67 -150 89
-223 58z m169 -42 c43 -28 96 -97 132 -171 34 -70 68 -218 61 -263 -3 -22 0
-46 9 -63 7 -15 10 -27 5 -27 -18 0 -59 76 -95 175 -19 55 -41 111 -47 124
-20 37 -74 73 -112 74 -70 2 -112 -77 -68 -128 16 -18 109 -100 157 -138 63
-50 155 -130 155 -137 0 -12 -12 -20 -22 -14 -5 3 -32 7 -61 8 -62 4 -181 38
-254 73 -29 14 -53 27 -53 28 0 1 8 9 17 16 14 12 16 12 11 -1 -4 -11 2 -15
18 -16 21 -2 18 3 -20 32 -48 37 -74 47 -36 14 13 -11 20 -23 16 -27 -10 -11
-43 36 -50 70 -12 58 -6 243 9 293 32 108 131 141 228 78z m-8 -214 c0 -8 -10
-16 -22 -18 -18 -3 -23 2 -23 18 0 16 5 21 23 18 12 -2 22 -10 22 -18z m289
-202 c6 -4 19 0 28 9 17 15 18 14 18 -11 0 -19 6 -29 20 -33 27 -7 25 -35 -4
-62 -52 -49 -149 -2 -132 63 9 36 48 75 54 55 3 -8 10 -17 16 -21z m-34 -134
c0 -13 -113 -251 -125 -263 -7 -7 -21 -11 -29 -8 -31 12 -17 59 49 158 36 53
68 104 71 113 5 12 34 12 34 0z m-79 -42 c-13 -24 -115 -120 -181 -169 -47
-36 -149 -76 -135 -53 5 9 -45 34 -62 31 -7 -1 -13 3 -13 9 0 5 5 10 10 10 6
0 10 8 10 17 0 14 -3 13 -16 -5 -19 -27 -13 -39 26 -47 17 -4 30 -11 30 -16 0
-11 -49 -1 -67 14 -16 12 -17 47 -2 47 5 0 8 4 5 9 -10 15 34 61 83 85 66 34
195 69 314 85 4 1 3 -7 -2 -17z m533 -8 c7 -19 -1 -34 -19 -34 -18 0 -28 17
-21 35 7 20 32 19 40 -1z"/>
<path d="M518 4193 c7 -3 16 -2 19 1 4 3 -2 6 -13 5 -11 0 -14 -3 -6 -6z"/>
<path d="M645 4150 c3 -5 11 -10 16 -10 6 0 7 5 4 10 -3 6 -11 10 -16 10 -6 0
-7 -4 -4 -10z"/>
<path d="M688 4133 c7 -3 16 -2 19 1 4 3 -2 6 -13 5 -11 0 -14 -3 -6 -6z"/>
<path d="M507 4002 c-22 -24 -21 -55 1 -75 24 -22 55 -21 75 1 23 26 21 58 -5
76 -29 21 -51 20 -71 -2z m61 -35 c4 -20 -25 -34 -40 -19 -15 15 -1 44 19 40
10 -2 19 -11 21 -21z"/>
<path d="M946 4687 c3 -10 9 -15 12 -12 3 3 0 11 -7 18 -10 9 -11 8 -5 -6z"/>
<path d="M5939 4195 c18 -8 43 -15 55 -14 20 0 20 1 1 8 -11 5 -36 11 -55 15
l-35 7 34 -16z"/>
<path d="M1065 3891 c-3 -5 4 -13 16 -16 28 -9 33 -2 9 13 -11 6 -21 8 -25 3z"/>
<path d="M1301 3871 c-8 -5 -20 -7 -27 -4 -6 2 -15 0 -18 -5 -3 -5 3 -12 14
-15 11 -3 20 -2 20 2 0 5 10 13 23 19 12 6 18 11 12 11 -5 0 -16 -3 -24 -8z"/>
<path d="M1140 3860 c14 -4 32 -8 40 -9 13 -1 13 0 0 9 -8 5 -26 9 -40 9 l-25
-1 25 -8z"/>
<path d="M867 3842 c-34 -37 -11 -92 38 -92 24 0 55 33 55 57 0 19 -37 53 -58
53 -11 0 -26 -8 -35 -18z m53 -27 c15 -18 5 -35 -21 -35 -12 0 -19 7 -19 18 0
33 20 42 40 17z"/>
<path d="M1200 3850 c0 -5 5 -10 10 -10 6 0 10 5 10 10 0 6 -4 10 -10 10 -5 0
-10 -4 -10 -10z"/>
<path d="M1198 3823 c7 -3 16 -2 19 1 4 3 -2 6 -13 5 -11 0 -14 -3 -6 -6z"/>
<path d="M941 3706 c-9 -10 -9 -16 -1 -21 6 -4 14 -4 17 -1 4 3 1 6 -7 6 -10
0 -10 3 0 15 7 8 10 15 7 15 -2 0 -10 -6 -16 -14z"/>
<path d="M7299 2363 c-13 -16 -12 -17 4 -4 16 13 21 21 13 21 -2 0 -10 -8 -17
-17z"/>
<path d="M7217 2364 c-18 -18 2 -164 23 -164 25 0 26 116 0 150 -9 11 -19 18
-23 14z"/>
<path d="M6325 2320 c3 -5 8 -10 11 -10 2 0 4 5 4 10 0 6 -5 10 -11 10 -5 0
-7 -4 -4 -10z"/>
<path d="M6062 2115 c0 -16 2 -22 5 -12 2 9 2 23 0 30 -3 6 -5 -1 -5 -18z"/>
<path d="M7422 2000 c0 -14 2 -19 5 -12 2 6 2 18 0 25 -3 6 -5 1 -5 -13z"/>
<path d="M7558 1983 c7 -3 16 -2 19 1 4 3 -2 6 -13 5 -11 0 -14 -3 -6 -6z"/>
<path d="M6170 1909 c0 -5 5 -7 10 -4 6 3 10 8 10 11 0 2 -4 4 -10 4 -5 0 -10
-5 -10 -11z"/>
<path d="M6258 1903 c7 -3 16 -2 19 1 4 3 -2 6 -13 5 -11 0 -14 -3 -6 -6z"/>
<path d="M2500 1249 c108 -22 136 -31 158 -52 30 -28 69 -113 92 -200 l19 -72
0 56 c1 61 -28 160 -63 211 -33 51 -78 68 -171 67 -76 -1 -78 -2 -35 -10z"/>
<path d="M778 1183 c6 -2 18 -2 25 0 6 3 1 5 -13 5 -14 0 -19 -2 -12 -5z"/>
</g>
</svg>
